<?xml version="1.0" encoding="UTF-8" standalone="no"?>
<svg
   xmlns:dc="http://purl.org/dc/elements/1.1/"
   xmlns:cc="http://creativecommons.org/ns#"
   xmlns:rdf="http://www.w3.org/1999/02/22-rdf-syntax-ns#"
   xmlns:svg="http://www.w3.org/2000/svg"
   xmlns="http://www.w3.org/2000/svg"
   xmlns:sodipodi="http://sodipodi.sourceforge.net/DTD/sodipodi-0.dtd"
   xmlns:inkscape="http://www.inkscape.org/namespaces/inkscape"
   version="1.0"
   width="639.10321"
   height="320.19223"
   viewBox="0 0 511.28257 256.15378"
   preserveAspectRatio="xMidYMid meet"
   id="svg2"
   inkscape:version="0.48.3.1 r9886"
   sodipodi:docname="splat.svg">
  <defs
     id="defs12" />
  <sodipodi:namedview
     pagecolor="#ffffff"
     bordercolor="#666666"
     borderopacity="1"
     objecttolerance="10"
     gridtolerance="10"
     guidetolerance="10"
     inkscape:pageopacity="0"
     inkscape:pageshadow="2"
     inkscape:window-width="1366"
     inkscape:window-height="694"
     id="namedview10"
     showgrid="false"
     fit-margin-top="0"
     fit-margin-left="0"
     fit-margin-right="0"
     fit-margin-bottom="0"
     inkscape:zoom="1"
     inkscape:cx="391.28992"
     inkscape:cy="90.252759"
     inkscape:window-x="-7"
     inkscape:window-y="23"
     inkscape:window-maximized="1"
     inkscape:current-layer="svg2" />
  <metadata
     id="metadata4">
Created by potrace 1.10, written by Peter Selinger 2001-2011
<rdf:RDF>
  <cc:Work
     rdf:about="">
    <dc:format>image/svg+xml</dc:format>
    <dc:type
       rdf:resource="http://purl.org/dc/dcmitype/StillImage" />
    <dc:title></dc:title>
  </cc:Work>
</rdf:RDF>
</metadata>
  <g
     transform="matrix(-0.11017403,0,0,0.09408552,629.80084,-69.215035)"
     id="g6"
     style="fill:#000000;stroke:none">
    <path
       d="m 2265,3455 c 43,-113 76,-219 86,-277 17,-93 0,-126 -80,-166 -52,-25 -64,-27 -166,-25 -76,1 -154,11 -255,32 -79,16 -146,28 -148,27 -2,-2 19,-33 46,-70 81,-108 134,-218 140,-292 l 5,-64 -44,-44 c -65,-64 -137,-79 -387,-79 -106,1 -192,-1 -190,-2 2,-2 32,-24 68,-50 179,-130 218,-208 135,-271 -19,-14 -100,-54 -182,-88 -186,-79 -233,-103 -213,-110 8,-3 44,-12 79,-21 160,-41 288,-103 324,-159 42,-64 9,-152 -83,-224 -25,-19 -36,-32 -25,-29 11,3 64,17 117,31 119,33 204,37 242,13 54,-36 27,-118 -89,-273 -36,-47 -64,-89 -61,-91 2,-2 17,2 33,10 57,30 280,106 354,121 98,20 139,10 139,-35 0,-43 -23,-82 -110,-190 l -78,-96 94,49 c 82,42 103,48 155,48 34,0 73,-7 89,-15 59,-31 107,-132 155,-330 6,-26 12,-14 50,103 24,74 53,144 64,156 12,13 45,36 73,51 83,46 153,23 198,-65 15,-31 54,-158 75,-245 6,-26 15,-6 64,145 62,187 85,239 126,289 66,77 117,6 161,-224 l 18,-90 14,85 c 8,47 23,106 34,131 38,90 164,128 224,67 41,-41 118,-180 164,-297 l 45,-114 7,49 c 4,27 11,93 17,146 19,168 69,258 145,258 102,0 243.5439,-129.5728 516,-477 25.5478,-32.57774 24.0683,-28.97178 -28,97 -40.9317,99.02827 -82,240 -82,280 0,18 9,11 48,-41 27,-35 69,-95 95,-132 25,-37 49,-69 53,-70 3,-1 18.5742,48.70232 28,73 16.8352,43.3976 31.871,87.5635 51,130 12.9265,28.6766 18.8198,63.8813 43,84 20.5917,17.1329 50.2274,23.8841 77,23 109.8421,-3.6273 160,-38 309,-115 63,-32 112,-54 110,-50 -3,4 -33,45 -67,91 -155,206 -177,326 -68,379 41,20 60,23 171,22 120,-1 299,-25 449,-60 35,-8 65,-13 67,-11 2,2 -48,29 -110,61 -139,71 -240,146 -283,210 -41,61 -42,95 -3,140 38,43 96,63 227,80 l 98,12 -60,18 c -109,32 -237,100 -287,154 -82,88 -76,166 20,262 68,68 179,134 322,194 58,24 114,47 125,52 13,5 -64,11 -205,15 -124,4 -261,10 -305,14 -211,18 -346,85 -362,178 -7,46 29,125 88,191 l 43,49 -54,-32 c -173,-103 -300,-142 -340,-106 -11,10 -20,30 -20,44 1,33 38,124 78,190 18,28 32,53 32,56 0,14 -45,2 -73,-19 -59,-45 -133,-76 -178,-75 -92.25,18.4842 -143.3915,113.2657 -201,200 -50,75 -68,92 -68,68 0,-6 -14,-43 -31,-82 -95,-218 -171.8266,-341.0901 -336,-396 -23.0074,-7.6951 -52.462,0.3508 -71,16 -38.8341,32.7825 -56.6388,90.1972 -58,141 -0.9459,35.3034 40,99 35,100 -5,2 -37,-14 -72,-35 -85,-53 -111,-63 -163,-63 -39,0 -51,5 -77,33 -38,40 -62,70 -63,83 -1,5 -14,47 -30,94 l -28,85 -9,-35 c -47,-177 -59,-205 -104,-247 -122,-115 -320,-97 -518,46 -54,39 -202,168 -304,265 -35,34 -60,52 -56,41 z"
       id="path8"
       inkscape:connector-curvature="0"
       sodipodi:nodetypes="cccccccccccccccccccsccccccscccsccccccccccccccccccsssscccaaaaccccccscccccccscccccccccccscccscaaaccsccccccscc" />
  </g>
  <g
     style="fill:#000000;stroke:none"
     transform="matrix(0.1,0,0,-0.1,-92.035383,338.21756)"
     id="g2993">
    <path
       inkscape:connector-curvature="0"
       d="m 5016.7029,2677.9609 c -13,-3 -18,-14 -18,-37 0,-17 -9,-94 -19,-171 -11,-77 -25,-198 -31,-270 -12,-128 -12,-129 10,-147 26,-21 83,-38 127,-38 26,0 34,5 37,23 3,12 15,72 26,132 12,61 42,195 66,299 25,104 42,191 40,194 -17,16 -190,28 -238,15 z"
       id="path2995-5"
       style="fill:#a6d854;fill-opacity:1" />
    <path
       inkscape:connector-curvature="0"
       d="m 4633.7029,2664.9609 c -11,-4 -28,-16 -37,-26 -14,-16 -133,-286 -178,-404 -7,-19 -16,-38 -20,-43 -3,-4 -23,66 -44,155 -20,90 -44,174 -52,186 -21,32 -65,49 -167,63 -104,15 -132,7 -140,-43 -23,-127 -32,-736 -11,-770 12,-19 68,-39 117,-41 l 52,-2 12,185 c 7,102 16,210 20,239 l 8,55 39,-135 c 21,-73 49,-157 61,-186 21,-46 28,-53 65,-63 23,-6 55,-10 71,-8 28,3 33,11 83,133 76,186 129,306 133,301 2,-2 -1,-32 -7,-67 -6,-35 -17,-125 -24,-199 -12,-114 -12,-138 0,-157 17,-26 75,-46 124,-41 41,4 36,-13 86,263 20,110 52,270 70,355 33,152 33,156 15,180 -27,37 -230,89 -276,70 z"
       id="path2997-4"
       style="fill:#a6d854;fill-opacity:1" />
    <path
       inkscape:connector-curvature="0"
       d="m 3673.7029,2614.9609 c -11,-4 -28,-16 -37,-26 -14,-16 -133,-286 -178,-404 -7,-19 -16,-38 -20,-43 -3,-4 -23,66 -44,155 -20,90 -44,174 -52,186 -21,32 -65,49 -167,63 -108,16 -132,8 -141,-48 -20,-124 -32,-668 -17,-737 8,-40 55,-66 122,-69 l 54,-2 12,185 c 7,102 16,210 20,239 l 8,55 39,-135 c 21,-73 49,-157 61,-186 21,-46 28,-53 65,-63 23,-6 55,-10 71,-8 28,3 33,11 83,133 76,186 129,306 133,301 2,-2 -1,-32 -7,-67 -6,-35 -17,-125 -24,-199 -12,-114 -12,-138 0,-157 17,-26 75,-46 124,-41 41,4 36,-13 86,263 20,110 52,270 70,355 33,152 33,156 15,180 -27,37 -230,89 -276,70 z"
       id="path2999-2"
       style="fill:#a6d854;fill-opacity:1" />
    <path
       inkscape:connector-curvature="0"
       d="m 2621.7029,2527.9609 c -12,-2 -33,-17 -47,-34 -56,-66 -295,-751 -282,-805 6,-24 58,-52 111,-61 38,-6 48,7 79,104 10,29 21,55 25,58 8,5 180,48 237,60 l 31,6 13,-74 c 7,-41 15,-79 19,-84 13,-21 52,-33 106,-33 43,0 57,4 62,17 4,9 -1,114 -11,232 -10,119 -20,292 -23,384 -5,133 -9,173 -22,188 -26,32 -213,58 -298,42 z m 104,-220 c -2,-5 2,-60 9,-123 21,-183 27,-165 -68,-183 -46,-8 -84,-14 -86,-12 -5,4 133,325 141,325 5,0 6,-3 4,-7 z"
       id="path3001-7"
       style="fill:#a6d854;fill-opacity:1" />
    <path
       inkscape:connector-curvature="0"
       d="m 1914.7029,2454.9609 c -84,-21 -193,-64 -228,-89 -22,-16 -22,-16 -25,-353 l -2,-336 25,-27 c 13,-14 53,-40 87,-57 52,-25 71,-30 112,-26 58,6 199,70 274,125 55,40 107,114 107,150 0,35 -35,97 -71,127 l -32,27 63,57 c 62,56 110,133 110,178 0,82 -97,212 -175,233 -59,16 -159,12 -245,-9 z m 207,-186 c 9,-24 -25,-80 -72,-121 -43,-37 -133,-93 -151,-93 -17,0 13,171 34,186 52,40 177,58 189,28 z m -76,-385 c 19,-32 -56,-105 -154,-147 -43,-19 -46,-16 -40,46 9,84 16,98 60,110 47,14 123,8 134,-9 z"
       id="path3003-5"
       style="fill:#a6d854;fill-opacity:1" />
    <path
       inkscape:connector-curvature="0"
       d="m 4957.7029,1969.9609 c -32,-17 -54,-66 -45,-100 22,-89 162,-97 202,-11 15,30 15,39 4,67 -22,52 -104,75 -161,44 z"
       id="path3005-5"
       style="fill:#a6d854;fill-opacity:1" />
    <path
       inkscape:connector-curvature="0"
       d="m 4984,2711 c -13,-3 -18,-14 -18,-37 0,-17 -9,-94 -19,-171 -11,-77 -25,-198 -31,-270 -12,-128 -12,-129 10,-147 26,-21 83,-38 127,-38 26,0 34,5 37,23 3,12 15,72 26,132 12,61 42,195 66,299 25,104 42,191 40,194 -17,16 -190,28 -238,15 z"
       id="path2995"
       style="fill:#e759a6;fill-opacity:1" />
    <path
       inkscape:connector-curvature="0"
       d="m 4601,2698 c -11,-4 -28,-16 -37,-26 -14,-16 -133,-286 -178,-404 -7,-19 -16,-38 -20,-43 -3,-4 -23,66 -44,155 -20,90 -44,174 -52,186 -21,32 -65,49 -167,63 -104,15 -132,7 -140,-43 -23,-127 -32,-736 -11,-770 12,-19 68,-39 117,-41 l 52,-2 12,185 c 7,102 16,210 20,239 l 8,55 39,-135 c 21,-73 49,-157 61,-186 21,-46 28,-53 65,-63 23,-6 55,-10 71,-8 28,3 33,11 83,133 76,186 129,306 133,301 2,-2 -1,-32 -7,-67 -6,-35 -17,-125 -24,-199 -12,-114 -12,-138 0,-157 17,-26 75,-46 124,-41 41,4 36,-13 86,263 20,110 52,270 70,355 33,152 33,156 15,180 -27,37 -230,89 -276,70 z"
       id="path2997"
       style="fill:#e759a6;fill-opacity:1" />
    <path
       inkscape:connector-curvature="0"
       d="m 3641,2648 c -11,-4 -28,-16 -37,-26 -14,-16 -133,-286 -178,-404 -7,-19 -16,-38 -20,-43 -3,-4 -23,66 -44,155 -20,90 -44,174 -52,186 -21,32 -65,49 -167,63 -108,16 -132,8 -141,-48 -20,-124 -32,-668 -17,-737 8,-40 55,-66 122,-69 l 54,-2 12,185 c 7,102 16,210 20,239 l 8,55 39,-135 c 21,-73 49,-157 61,-186 21,-46 28,-53 65,-63 23,-6 55,-10 71,-8 28,3 33,11 83,133 76,186 129,306 133,301 2,-2 -1,-32 -7,-67 -6,-35 -17,-125 -24,-199 -12,-114 -12,-138 0,-157 17,-26 75,-46 124,-41 41,4 36,-13 86,263 20,110 52,270 70,355 33,152 33,156 15,180 -27,37 -230,89 -276,70 z"
       id="path2999"
       style="fill:#e759a6;fill-opacity:1" />
    <path
       inkscape:connector-curvature="0"
       d="m 2589,2561 c -12,-2 -33,-17 -47,-34 -56,-66 -295,-751 -282,-805 6,-24 58,-52 111,-61 38,-6 48,7 79,104 10,29 21,55 25,58 8,5 180,48 237,60 l 31,6 13,-74 c 7,-41 15,-79 19,-84 13,-21 52,-33 106,-33 43,0 57,4 62,17 4,9 -1,114 -11,232 -10,119 -20,292 -23,384 -5,133 -9,173 -22,188 -26,32 -213,58 -298,42 z m 104,-220 c -2,-5 2,-60 9,-123 21,-183 27,-165 -68,-183 -46,-8 -84,-14 -86,-12 -5,4 133,325 141,325 5,0 6,-3 4,-7 z"
       id="path3001"
       style="fill:#e759a6;fill-opacity:1" />
    <path
       inkscape:connector-curvature="0"
       d="m 1882,2488 c -84,-21 -193,-64 -228,-89 -22,-16 -22,-16 -25,-353 l -2,-336 25,-27 c 13,-14 53,-40 87,-57 52,-25 71,-30 112,-26 58,6 199,70 274,125 55,40 107,114 107,150 0,35 -35,97 -71,127 l -32,27 63,57 c 62,56 110,133 110,178 0,82 -97,212 -175,233 -59,16 -159,12 -245,-9 z m 207,-186 c 9,-24 -25,-80 -72,-121 -43,-37 -133,-93 -151,-93 -17,0 13,171 34,186 52,40 177,58 189,28 z m -76,-385 c 19,-32 -56,-105 -154,-147 -43,-19 -46,-16 -40,46 9,84 16,98 60,110 47,14 123,8 134,-9 z"
       id="path3003"
       style="fill:#e759a6;fill-opacity:1" />
    <path
       inkscape:connector-curvature="0"
       d="m 4925,2003 c -32,-17 -54,-66 -45,-100 22,-89 162,-97 202,-11 15,30 15,39 4,67 -22,52 -104,75 -161,44 z"
       id="path3005"
       style="fill:#e759a6;fill-opacity:1" />
  </g>
</svg>
