<?xml version="1.0" encoding="UTF-8"?>

<svg version="1.2" baseProfile="tiny" width="210mm" height="297mm" viewBox="0 0 21000 29700" preserveAspectRatio="xMidYMid" fill-rule="evenodd" clip-path="url(#presentation_clip_path)" stroke-width="28.222" stroke-linejoin="round" xmlns="http://www.w3.org/2000/svg" xmlns:ooo="http://xml.openoffice.org/svg/export" xmlns:xlink="http://www.w3.org/1999/xlink" xml:space="preserve">
 <defs class="ClipPathGroup">
  <clipPath id="presentation_clip_path" clipPathUnits="userSpaceOnUse">
   <rect x="0" y="0" width="21000" height="29700"/>
  </clipPath>
 </defs>
 <defs class="TextShapeIndex">
  <g ooo:slide="id1" ooo:id-list="id3 id4 id5 id6 id7 id8 id9 id10 id11 id12 id13 id14 id15 id16 id17 id18 id19 id20 id21 id22 id23 id24 id25 id26 id27 id28 id29 id30 id31 id32 id33 id34 id35 id36 id37 id38"/>
 </defs>
 <defs class="EmbeddedBulletChars">
  <g id="bullet-char-template(57356)" transform="scale(0.00048828125,-0.00048828125)">
   <path d="M 580,1141 L 1163,571 580,0 -4,571 580,1141 Z"/>
  </g>
  <g id="bullet-char-template(57354)" transform="scale(0.00048828125,-0.00048828125)">
   <path d="M 8,1128 L 1137,1128 1137,0 8,0 8,1128 Z"/>
  </g>
  <g id="bullet-char-template(10146)" transform="scale(0.00048828125,-0.00048828125)">
   <path d="M 174,0 L 602,739 174,1481 1456,739 174,0 Z M 1358,739 L 309,1346 659,739 1358,739 Z"/>
  </g>
  <g id="bullet-char-template(10132)" transform="scale(0.00048828125,-0.00048828125)">
   <path d="M 2015,739 L 1276,0 717,0 1260,543 174,543 174,936 1260,936 717,1481 1274,1481 2015,739 Z"/>
  </g>
  <g id="bullet-char-template(10007)" transform="scale(0.00048828125,-0.00048828125)">
   <path d="M 0,-2 C -7,14 -16,27 -25,37 L 356,567 C 262,823 215,952 215,954 215,979 228,992 255,992 264,992 276,990 289,987 310,991 331,999 354,1012 L 381,999 492,748 772,1049 836,1024 860,1049 C 881,1039 901,1025 922,1006 886,937 835,863 770,784 769,783 710,716 594,584 L 774,223 C 774,196 753,168 711,139 L 727,119 C 717,90 699,76 672,76 641,76 570,178 457,381 L 164,-76 C 142,-110 111,-127 72,-127 30,-127 9,-110 8,-76 1,-67 -2,-52 -2,-32 -2,-23 -1,-13 0,-2 Z"/>
  </g>
  <g id="bullet-char-template(10004)" transform="scale(0.00048828125,-0.00048828125)">
   <path d="M 285,-33 C 182,-33 111,30 74,156 52,228 41,333 41,471 41,549 55,616 82,672 116,743 169,778 240,778 293,778 328,747 346,684 L 369,508 C 377,444 397,411 428,410 L 1163,1116 C 1174,1127 1196,1133 1229,1133 1271,1133 1292,1118 1292,1087 L 1292,965 C 1292,929 1282,901 1262,881 L 442,47 C 390,-6 338,-33 285,-33 Z"/>
  </g>
  <g id="bullet-char-template(9679)" transform="scale(0.00048828125,-0.00048828125)">
   <path d="M 813,0 C 632,0 489,54 383,161 276,268 223,411 223,592 223,773 276,916 383,1023 489,1130 632,1184 813,1184 992,1184 1136,1130 1245,1023 1353,916 1407,772 1407,592 1407,412 1353,268 1245,161 1136,54 992,0 813,0 Z"/>
  </g>
  <g id="bullet-char-template(8226)" transform="scale(0.00048828125,-0.00048828125)">
   <path d="M 346,457 C 273,457 209,483 155,535 101,586 74,649 74,723 74,796 101,859 155,911 209,963 273,989 346,989 419,989 480,963 531,910 582,859 608,796 608,723 608,648 583,586 532,535 482,483 420,457 346,457 Z"/>
  </g>
  <g id="bullet-char-template(8211)" transform="scale(0.00048828125,-0.00048828125)">
   <path d="M -4,459 L 1135,459 1135,606 -4,606 -4,459 Z"/>
  </g>
 </defs>
 <defs class="TextEmbeddedBitmaps"/>
 <g>
  <g id="id2" class="Master_Slide">
   <g id="bg-id2" class="Background"/>
   <g id="bo-id2" class="BackgroundObjects"/>
  </g>
 </g>
 <g class="SlideGroup">
  <g>
   <g id="id1" class="Slide" clip-path="url(#presentation_clip_path)">
    <g class="Page">
     <g class="com.sun.star.drawing.LineShape">
      <g id="id3">
       <path fill="none" stroke="rgb(0,0,0)" stroke-width="200" stroke-linejoin="round" d="M 7108,9172 L 7108,10897"/>
      </g>
     </g>
     <g class="com.sun.star.drawing.LineShape">
      <g id="id4">
       <path fill="none" stroke="rgb(0,0,0)" stroke-width="200" stroke-linejoin="round" d="M 8900,9172 L 8900,10897"/>
      </g>
     </g>
     <g class="com.sun.star.drawing.LineShape">
      <g id="id5">
       <path fill="none" stroke="rgb(0,0,0)" stroke-width="200" stroke-linejoin="round" d="M 7004,10988 L 8996,10988"/>
      </g>
     </g>
     <g class="Group">
      <g class="com.sun.star.drawing.LineShape">
       <g id="id6">
        <path fill="none" stroke="rgb(0,0,0)" stroke-width="200" stroke-linejoin="round" d="M 10108,10172 L 10108,11897"/>
       </g>
      </g>
      <g class="com.sun.star.drawing.LineShape">
       <g id="id7">
        <path fill="none" stroke="rgb(0,0,0)" stroke-width="200" stroke-linejoin="round" d="M 11900,10172 L 11900,11897"/>
       </g>
      </g>
      <g class="com.sun.star.drawing.LineShape">
       <g id="id8">
        <path fill="none" stroke="rgb(0,0,0)" stroke-width="200" stroke-linejoin="round" d="M 10004,11988 L 11996,11988"/>
       </g>
      </g>
     </g>
     <g class="com.sun.star.drawing.LineShape">
      <g id="id9">
       <path fill="none" stroke="rgb(0,0,0)" stroke-width="200" stroke-linejoin="round" d="M 5708,11072 L 5708,12797"/>
      </g>
     </g>
     <g class="com.sun.star.drawing.LineShape">
      <g id="id10">
       <path fill="none" stroke="rgb(0,0,0)" stroke-width="200" stroke-linejoin="round" d="M 8000,11072 L 8000,12797"/>
      </g>
     </g>
     <g class="com.sun.star.drawing.LineShape">
      <g id="id11">
       <path fill="none" stroke="rgb(0,0,0)" stroke-width="200" stroke-linejoin="round" d="M 5603,12888 L 8096,12888"/>
      </g>
     </g>
     <g class="com.sun.star.drawing.LineShape">
      <g id="id12">
       <path fill="none" stroke="rgb(0,0,0)" stroke-width="200" stroke-linejoin="round" d="M 7202,12971 L 7202,14696"/>
      </g>
     </g>
     <g class="com.sun.star.drawing.LineShape">
      <g id="id13">
       <path fill="none" stroke="rgb(0,0,0)" stroke-width="200" stroke-linejoin="round" d="M 11000,12076 L 11000,14696"/>
      </g>
     </g>
     <g class="com.sun.star.drawing.LineShape">
      <g id="id14">
       <path fill="none" stroke="rgb(0,0,0)" stroke-width="200" stroke-linejoin="round" d="M 7104,14787 L 11099,14787"/>
      </g>
     </g>
     <g class="com.sun.star.drawing.OpenBezierShape">
      <g id="id15">
       <path fill="none" stroke="rgb(0,0,0)" stroke-width="200" stroke-linejoin="round" d="M 8263,14721 C 7866,16988 6940,17905 6940,17905"/>
      </g>
     </g>
     <g class="com.sun.star.drawing.OpenBezierShape">
      <g id="id16">
       <path fill="none" stroke="rgb(0,0,0)" stroke-width="200" stroke-linejoin="round" d="M 9939,14721 C 10336,16988 11262,17905 11262,17905"/>
      </g>
     </g>
     <g class="Group">
      <g class="com.sun.star.drawing.ClosedBezierShape">
       <g id="id17">
        <path fill="rgb(166,216,84)" stroke="none" d="M 14481,9743 C 13981,10284 14518,10917 14518,10917 L 14481,10302 14481,9743 Z"/>
        <path fill="none" stroke="rgb(102,166,30)" stroke-width="50" stroke-linejoin="round" d="M 14481,9743 C 13981,10284 14518,10917 14518,10917 L 14481,10302 14481,9743 Z"/>
       </g>
      </g>
      <g class="com.sun.star.drawing.ClosedBezierShape">
       <g id="id18">
        <path fill="rgb(166,216,84)" stroke="none" d="M 14506,9743 C 15005,10284 14468,10917 14468,10917 L 14506,10302 14506,9743 Z"/>
        <path fill="none" stroke="rgb(102,166,30)" stroke-width="50" stroke-linejoin="round" d="M 14506,9743 C 15005,10284 14468,10917 14468,10917 L 14506,10302 14506,9743 Z"/>
       </g>
      </g>
     </g>
     <g class="Group">
      <g class="com.sun.star.drawing.ClosedBezierShape">
       <g id="id19">
        <path fill="rgb(166,216,84)" stroke="none" d="M 16015,9743 C 15516,10284 16053,10917 16053,10917 L 16015,10302 16015,9743 Z"/>
        <path fill="none" stroke="rgb(102,166,30)" stroke-width="50" stroke-linejoin="round" d="M 16015,9743 C 15516,10284 16053,10917 16053,10917 L 16015,10302 16015,9743 Z"/>
       </g>
      </g>
      <g class="com.sun.star.drawing.ClosedBezierShape">
       <g id="id20">
        <path fill="rgb(166,216,84)" stroke="none" d="M 16040,9743 C 16540,10284 16003,10917 16003,10917 L 16040,10302 16040,9743 Z"/>
        <path fill="none" stroke="rgb(102,166,30)" stroke-width="50" stroke-linejoin="round" d="M 16040,9743 C 16540,10284 16003,10917 16003,10917 L 16040,10302 16040,9743 Z"/>
       </g>
      </g>
     </g>
     <g class="Group">
      <g class="com.sun.star.drawing.ClosedBezierShape">
       <g id="id21">
        <path fill="rgb(166,216,84)" stroke="none" d="M 15248,9743 C 14749,10284 15286,10917 15286,10917 L 15248,10302 15248,9743 Z"/>
        <path fill="none" stroke="rgb(102,166,30)" stroke-width="50" stroke-linejoin="round" d="M 15248,9743 C 14749,10284 15286,10917 15286,10917 L 15248,10302 15248,9743 Z"/>
       </g>
      </g>
      <g class="com.sun.star.drawing.ClosedBezierShape">
       <g id="id22">
        <path fill="rgb(166,216,84)" stroke="none" d="M 15273,9743 C 15773,10284 15236,10917 15236,10917 L 15273,10302 15273,9743 Z"/>
        <path fill="none" stroke="rgb(102,166,30)" stroke-width="50" stroke-linejoin="round" d="M 15273,9743 C 15773,10284 15236,10917 15236,10917 L 15273,10302 15273,9743 Z"/>
       </g>
      </g>
     </g>
     <g class="Group">
      <g class="com.sun.star.drawing.ClosedBezierShape">
       <g id="id23">
        <path fill="rgb(166,216,84)" stroke="none" d="M 14481,6675 C 13981,7216 14518,7849 14518,7849 L 14481,7234 14481,6675 Z"/>
        <path fill="none" stroke="rgb(102,166,30)" stroke-width="50" stroke-linejoin="round" d="M 14481,6675 C 13981,7216 14518,7849 14518,7849 L 14481,7234 14481,6675 Z"/>
       </g>
      </g>
      <g class="com.sun.star.drawing.ClosedBezierShape">
       <g id="id24">
        <path fill="rgb(166,216,84)" stroke="none" d="M 14506,6675 C 15005,7216 14468,7849 14468,7849 L 14506,7234 14506,6675 Z"/>
        <path fill="none" stroke="rgb(102,166,30)" stroke-width="50" stroke-linejoin="round" d="M 14506,6675 C 15005,7216 14468,7849 14468,7849 L 14506,7234 14506,6675 Z"/>
       </g>
      </g>
     </g>
     <g class="Group">
      <g class="com.sun.star.drawing.ClosedBezierShape">
       <g id="id25">
        <path fill="rgb(166,216,84)" stroke="none" d="M 16015,6675 C 15516,7216 16053,7849 16053,7849 L 16015,7234 16015,6675 Z"/>
        <path fill="none" stroke="rgb(102,166,30)" stroke-width="50" stroke-linejoin="round" d="M 16015,6675 C 15516,7216 16053,7849 16053,7849 L 16015,7234 16015,6675 Z"/>
       </g>
      </g>
      <g class="com.sun.star.drawing.ClosedBezierShape">
       <g id="id26">
        <path fill="rgb(166,216,84)" stroke="none" d="M 16040,6675 C 16540,7216 16003,7849 16003,7849 L 16040,7234 16040,6675 Z"/>
        <path fill="none" stroke="rgb(102,166,30)" stroke-width="50" stroke-linejoin="round" d="M 16040,6675 C 16540,7216 16003,7849 16003,7849 L 16040,7234 16040,6675 Z"/>
       </g>
      </g>
     </g>
     <g class="Group">
      <g class="com.sun.star.drawing.ClosedBezierShape">
       <g id="id27">
        <path fill="rgb(166,216,84)" stroke="none" d="M 15248,6675 C 14749,7216 15286,7849 15286,7849 L 15248,7234 15248,6675 Z"/>
        <path fill="none" stroke="rgb(102,166,30)" stroke-width="50" stroke-linejoin="round" d="M 15248,6675 C 14749,7216 15286,7849 15286,7849 L 15248,7234 15248,6675 Z"/>
       </g>
      </g>
      <g class="com.sun.star.drawing.ClosedBezierShape">
       <g id="id28">
        <path fill="rgb(166,216,84)" stroke="none" d="M 15273,6675 C 15773,7216 15236,7849 15236,7849 L 15273,7234 15273,6675 Z"/>
        <path fill="none" stroke="rgb(102,166,30)" stroke-width="50" stroke-linejoin="round" d="M 15273,6675 C 15773,7216 15236,7849 15236,7849 L 15273,7234 15273,6675 Z"/>
       </g>
      </g>
     </g>
     <g class="Group">
      <g class="com.sun.star.drawing.ClosedBezierShape">
       <g id="id29">
        <path fill="rgb(166,216,84)" stroke="none" d="M 14481,8209 C 13981,8750 14518,9383 14518,9383 L 14481,8768 14481,8209 Z"/>
        <path fill="none" stroke="rgb(102,166,30)" stroke-width="50" stroke-linejoin="round" d="M 14481,8209 C 13981,8750 14518,9383 14518,9383 L 14481,8768 14481,8209 Z"/>
       </g>
      </g>
      <g class="com.sun.star.drawing.ClosedBezierShape">
       <g id="id30">
        <path fill="rgb(166,216,84)" stroke="none" d="M 14506,8209 C 15005,8750 14468,9383 14468,9383 L 14506,8768 14506,8209 Z"/>
        <path fill="none" stroke="rgb(102,166,30)" stroke-width="50" stroke-linejoin="round" d="M 14506,8209 C 15005,8750 14468,9383 14468,9383 L 14506,8768 14506,8209 Z"/>
       </g>
      </g>
     </g>
     <g class="Group">
      <g class="com.sun.star.drawing.ClosedBezierShape">
       <g id="id31">
        <path fill="rgb(166,216,84)" stroke="none" d="M 16015,8209 C 15516,8750 16053,9383 16053,9383 L 16015,8768 16015,8209 Z"/>
        <path fill="none" stroke="rgb(102,166,30)" stroke-width="50" stroke-linejoin="round" d="M 16015,8209 C 15516,8750 16053,9383 16053,9383 L 16015,8768 16015,8209 Z"/>
       </g>
      </g>
      <g class="com.sun.star.drawing.ClosedBezierShape">
       <g id="id32">
        <path fill="rgb(166,216,84)" stroke="none" d="M 16040,8209 C 16540,8750 16003,9383 16003,9383 L 16040,8768 16040,8209 Z"/>
        <path fill="none" stroke="rgb(102,166,30)" stroke-width="50" stroke-linejoin="round" d="M 16040,8209 C 16540,8750 16003,9383 16003,9383 L 16040,8768 16040,8209 Z"/>
       </g>
      </g>
     </g>
     <g class="Group">
      <g class="com.sun.star.drawing.ClosedBezierShape">
       <g id="id33">
        <path fill="rgb(166,216,84)" stroke="none" d="M 15248,8209 C 14749,8750 15286,9383 15286,9383 L 15248,8768 15248,8209 Z"/>
        <path fill="none" stroke="rgb(102,166,30)" stroke-width="50" stroke-linejoin="round" d="M 15248,8209 C 14749,8750 15286,9383 15286,9383 L 15248,8768 15248,8209 Z"/>
       </g>
      </g>
      <g class="com.sun.star.drawing.ClosedBezierShape">
       <g id="id34">
        <path fill="rgb(166,216,84)" stroke="none" d="M 15273,8209 C 15773,8750 15236,9383 15236,9383 L 15273,8768 15273,8209 Z"/>
        <path fill="none" stroke="rgb(102,166,30)" stroke-width="50" stroke-linejoin="round" d="M 15273,8209 C 15773,8750 15236,9383 15236,9383 L 15273,8768 15273,8209 Z"/>
       </g>
      </g>
     </g>
     <g class="com.sun.star.drawing.OpenBezierShape">
      <g id="id35">
       <path fill="none" stroke="rgb(0,0,0)" stroke-width="50" stroke-linejoin="round" d="M 8693,16612 C 8489,17433 8014,17765 8014,17765"/>
      </g>
     </g>
     <g class="com.sun.star.drawing.OpenBezierShape">
      <g id="id36">
       <path fill="none" stroke="rgb(0,0,0)" stroke-width="50" stroke-linejoin="round" d="M 8580,15554 C 8478,16186 8240,16442 8240,16442"/>
      </g>
     </g>
     <g class="com.sun.star.drawing.OpenBezierShape">
      <g id="id37">
       <path fill="none" stroke="rgb(0,0,0)" stroke-width="50" stroke-linejoin="round" d="M 9563,15837 C 9796,17183 10339,17728 10339,17728"/>
      </g>
     </g>
     <g class="com.sun.star.drawing.OpenBezierShape">
      <g id="id38">
       <path fill="none" stroke="rgb(0,0,0)" stroke-width="50" stroke-linejoin="round" d="M 9056,15308 C 9010,15712 8904,15875 8904,15875"/>
      </g>
     </g>
    </g>
   </g>
  </g>
 </g>
</svg>