<?xml version="1.0" encoding="UTF-8" standalone="no"?>
<!-- Created with Inkscape (http://www.inkscape.org/) -->

<svg
   xmlns:dc="http://purl.org/dc/elements/1.1/"
   xmlns:cc="http://creativecommons.org/ns#"
   xmlns:rdf="http://www.w3.org/1999/02/22-rdf-syntax-ns#"
   xmlns:svg="http://www.w3.org/2000/svg"
   xmlns="http://www.w3.org/2000/svg"
   xmlns:sodipodi="http://sodipodi.sourceforge.net/DTD/sodipodi-0.dtd"
   xmlns:inkscape="http://www.inkscape.org/namespaces/inkscape"
   width="2703.8135"
   height="576.66333"
   id="svg2"
   version="1.1"
   inkscape:version="0.48.3.1 r9886"
   sodipodi:docname="bamm_logo.svg"
   inkscape:export-filename="/home/uqmimelf/working/tmp/M_logos/svgs/bamm_logo.png"
   inkscape:export-xdpi="300"
   inkscape:export-ydpi="300">
  <defs
     id="defs4" />
  <sodipodi:namedview
     id="base"
     pagecolor="#ffffff"
     bordercolor="#666666"
     borderopacity="1.0"
     inkscape:pageopacity="0.0"
     inkscape:pageshadow="2"
     inkscape:zoom="0.35"
     inkscape:cx="1382.0758"
     inkscape:cy="248.69584"
     inkscape:document-units="px"
     inkscape:current-layer="flowRoot3683"
     showgrid="false"
     inkscape:window-width="1920"
     inkscape:window-height="1188"
     inkscape:window-x="1359"
     inkscape:window-y="-12"
     inkscape:window-maximized="1"
     fit-margin-top="0"
     fit-margin-left="0"
     fit-margin-right="0"
     fit-margin-bottom="0" />
  <metadata
     id="metadata7">
    <rdf:RDF>
      <cc:Work
         rdf:about="">
        <dc:format>image/svg+xml</dc:format>
        <dc:type
           rdf:resource="http://purl.org/dc/dcmitype/StillImage" />
        <dc:title />
      </cc:Work>
    </rdf:RDF>
  </metadata>
  <g
     inkscape:label="Layer 1"
     inkscape:groupmode="layer"
     id="layer1"
     transform="translate(-25.0593,-464.03052)">
    <path
       sodipodi:type="arc"
       style="fill:none;stroke:#000000;stroke-width:29.57933807;stroke-miterlimit:4;stroke-opacity:1;stroke-dasharray:none"
       id="path2987"
       sodipodi:cx="434.3656"
       sodipodi:cy="432.31467"
       sodipodi:rx="373.75644"
       sodipodi:ry="373.75644"
       d="m 808.12204,432.31467 c 0,206.41998 -167.33646,373.75644 -373.75644,373.75644 -206.41998,0 -373.756439,-167.33646 -373.756439,-373.75644 0,-206.41998 167.336459,-373.756442 373.756439,-373.756442 206.41998,0 373.75644,167.336462 373.75644,373.756442 z"
       transform="matrix(0.74207836,0,0,0.74207836,-8.942354,431.55082)" />
    <path
       style="fill:none;stroke:#000000;stroke-width:21.95018578;stroke-miterlimit:4;stroke-opacity:1"
       d="m 2440.5411,475.00561 c 153.1798,0 277.3566,124.17677 277.3566,277.35657 0,153.1798 -124.1768,277.35652 -277.3566,277.35652"
       id="path2987-1"
       inkscape:connector-curvature="0"
       sodipodi:nodetypes="csc" />
    <path
       style="fill:none;stroke:#000000;stroke-width:22;stroke-miterlimit:4;stroke-opacity:1;stroke-dasharray:none;stroke-dashoffset:0"
       d="m 2441.7946,1029.6938 -2119.73358,0"
       id="path3794"
       inkscape:connector-curvature="0" />
    <path
       style="fill:none;stroke:#000000;stroke-width:22;stroke-miterlimit:4;stroke-opacity:1;stroke-dasharray:none;stroke-dashoffset:0"
       d="m 322.06102,475.03052 2119.73358,0"
       id="rect3789"
       inkscape:connector-curvature="0" />
    <g
       transform="matrix(-0.11555331,0,0,0.11970577,702.428,492.77464)"
       id="g6"
       style="fill:#000000;stroke:none">
      <path
         d="m 2265,3455 c 43,-113 76,-219 86,-277 17,-93 0,-126 -80,-166 -52,-25 -64,-27 -166,-25 -76,1 -154,11 -255,32 -79,16 -146,28 -148,27 -2,-2 19,-33 46,-70 81,-108 134,-218 140,-292 l 5,-64 -44,-44 c -65,-64 -137,-79 -387,-79 -106,1 -192,-1 -190,-2 2,-2 32,-24 68,-50 179,-130 218,-208 135,-271 -19,-14 -100,-54 -182,-88 -186,-79 -233,-103 -213,-110 8,-3 44,-12 79,-21 160,-41 288,-103 324,-159 42,-64 9,-152 -83,-224 -25,-19 -36,-32 -25,-29 11,3 64,17 117,31 119,33 204,37 242,13 54,-36 27,-118 -89,-273 -36,-47 -64,-89 -61,-91 2,-2 17,2 33,10 57,30 280,106 354,121 98,20 139,10 139,-35 0,-43 -23,-82 -110,-190 l -78,-96 94,49 c 82,42 103,48 155,48 34,0 73,-7 89,-15 59,-31 107,-132 155,-330 6,-26 12,-14 50,103 24,74 53,144 64,156 12,13 45,36 73,51 83,46 153,23 198,-65 15,-31 54,-158 75,-245 6,-26 15,-6 64,145 62,187 85,239 126,289 66,77 117,6 161,-224 l 18,-90 14,85 c 8,47 23,106 34,131 38,90 164,128 224,67 41,-41 118,-180 164,-297 l 45,-114 7,49 c 4,27 11,93 17,146 19,168 69,258 145,258 102,0 243.5439,-129.5728 516,-477 25.5478,-32.57774 24.0683,-28.97178 -28,97 -40.9317,99.02827 -82,240 -82,280 0,18 9,11 48,-41 27,-35 69,-95 95,-132 25,-37 49,-69 53,-70 3,-1 18.5742,48.70232 28,73 16.8352,43.3976 31.871,87.5635 51,130 12.9265,28.6766 18.8198,63.8813 43,84 20.5917,17.1329 50.2274,23.8841 77,23 109.8421,-3.6273 160,-38 309,-115 63,-32 112,-54 110,-50 -3,4 -33,45 -67,91 -155,206 -177,326 -68,379 41,20 60,23 171,22 120,-1 299,-25 449,-60 35,-8 65,-13 67,-11 2,2 -48,29 -110,61 -139,71 -240,146 -283,210 -41,61 -42,95 -3,140 38,43 96,63 227,80 l 98,12 -60,18 c -109,32 -237,100 -287,154 -82,88 -76,166 20,262 68,68 179,134 322,194 58,24 114,47 125,52 13,5 -64,11 -205,15 -124,4 -261,10 -305,14 -211,18 -346,85 -362,178 -7,46 29,125 88,191 l 43,49 -54,-32 c -173,-103 -300,-142 -340,-106 -11,10 -20,30 -20,44 1,33 38,124 78,190 18,28 32,53 32,56 0,14 -45,2 -73,-19 -59,-45 -133,-76 -178,-75 -92.25,18.4842 -143.3915,113.2657 -201,200 -50,75 -68,92 -68,68 0,-6 -14,-43 -31,-82 -95,-218 -171.8266,-341.0901 -336,-396 -23.0074,-7.6951 -52.462,0.3508 -71,16 -38.8341,32.7825 -56.6388,90.1972 -58,141 -0.9459,35.3034 40,99 35,100 -5,2 -37,-14 -72,-35 -85,-53 -111,-63 -163,-63 -39,0 -51,5 -77,33 -38,40 -62,70 -63,83 -1,5 -14,47 -30,94 l -28,85 -9,-35 c -47,-177 -59,-205 -104,-247 -122,-115 -320,-97 -518,46 -54,39 -202,168 -304,265 -35,34 -60,52 -56,41 z"
         id="path8"
         inkscape:connector-curvature="0"
         sodipodi:nodetypes="cccccccccccccccccccsccccccscccsccccccccccccccccccsssscccaaaaccccccscccccccscccccccccccscccscaaaccsccccccscc" />
    </g>
    <g
       style="fill:#000000;stroke:none"
       transform="matrix(0.10488253,0,0,-0.1272308,-54.652066,1011.1544)"
       id="g2993">
      <path
         inkscape:connector-curvature="0"
         d="m 5016.7029,2677.9609 c -13,-3 -18,-14 -18,-37 0,-17 -9,-94 -19,-171 -11,-77 -25,-198 -31,-270 -12,-128 -12,-129 10,-147 26,-21 83,-38 127,-38 26,0 34,5 37,23 3,12 15,72 26,132 12,61 42,195 66,299 25,104 42,191 40,194 -17,16 -190,28 -238,15 z"
         id="path2995-5"
         style="fill:#a6d854;fill-opacity:1" />
      <path
         inkscape:connector-curvature="0"
         d="m 4633.7029,2664.9609 c -11,-4 -28,-16 -37,-26 -14,-16 -133,-286 -178,-404 -7,-19 -16,-38 -20,-43 -3,-4 -23,66 -44,155 -20,90 -44,174 -52,186 -21,32 -65,49 -167,63 -104,15 -132,7 -140,-43 -23,-127 -32,-736 -11,-770 12,-19 68,-39 117,-41 l 52,-2 12,185 c 7,102 16,210 20,239 l 8,55 39,-135 c 21,-73 49,-157 61,-186 21,-46 28,-53 65,-63 23,-6 55,-10 71,-8 28,3 33,11 83,133 76,186 129,306 133,301 2,-2 -1,-32 -7,-67 -6,-35 -17,-125 -24,-199 -12,-114 -12,-138 0,-157 17,-26 75,-46 124,-41 41,4 36,-13 86,263 20,110 52,270 70,355 33,152 33,156 15,180 -27,37 -230,89 -276,70 z"
         id="path2997-4"
         style="fill:#a6d854;fill-opacity:1" />
      <path
         inkscape:connector-curvature="0"
         d="m 3673.7029,2614.9609 c -11,-4 -28,-16 -37,-26 -14,-16 -133,-286 -178,-404 -7,-19 -16,-38 -20,-43 -3,-4 -23,66 -44,155 -20,90 -44,174 -52,186 -21,32 -65,49 -167,63 -108,16 -132,8 -141,-48 -20,-124 -32,-668 -17,-737 8,-40 55,-66 122,-69 l 54,-2 12,185 c 7,102 16,210 20,239 l 8,55 39,-135 c 21,-73 49,-157 61,-186 21,-46 28,-53 65,-63 23,-6 55,-10 71,-8 28,3 33,11 83,133 76,186 129,306 133,301 2,-2 -1,-32 -7,-67 -6,-35 -17,-125 -24,-199 -12,-114 -12,-138 0,-157 17,-26 75,-46 124,-41 41,4 36,-13 86,263 20,110 52,270 70,355 33,152 33,156 15,180 -27,37 -230,89 -276,70 z"
         id="path2999-2"
         style="fill:#a6d854;fill-opacity:1" />
      <path
         inkscape:connector-curvature="0"
         d="m 2621.7029,2527.9609 c -12,-2 -33,-17 -47,-34 -56,-66 -295,-751 -282,-805 6,-24 58,-52 111,-61 38,-6 48,7 79,104 10,29 21,55 25,58 8,5 180,48 237,60 l 31,6 13,-74 c 7,-41 15,-79 19,-84 13,-21 52,-33 106,-33 43,0 57,4 62,17 4,9 -1,114 -11,232 -10,119 -20,292 -23,384 -5,133 -9,173 -22,188 -26,32 -213,58 -298,42 z m 104,-220 c -2,-5 2,-60 9,-123 21,-183 27,-165 -68,-183 -46,-8 -84,-14 -86,-12 -5,4 133,325 141,325 5,0 6,-3 4,-7 z"
         id="path3001-7"
         style="fill:#a6d854;fill-opacity:1" />
      <path
         inkscape:connector-curvature="0"
         d="m 1914.7029,2454.9609 c -84,-21 -193,-64 -228,-89 -22,-16 -22,-16 -25,-353 l -2,-336 25,-27 c 13,-14 53,-40 87,-57 52,-25 71,-30 112,-26 58,6 199,70 274,125 55,40 107,114 107,150 0,35 -35,97 -71,127 l -32,27 63,57 c 62,56 110,133 110,178 0,82 -97,212 -175,233 -59,16 -159,12 -245,-9 z m 207,-186 c 9,-24 -25,-80 -72,-121 -43,-37 -133,-93 -151,-93 -17,0 13,171 34,186 52,40 177,58 189,28 z m -76,-385 c 19,-32 -56,-105 -154,-147 -43,-19 -46,-16 -40,46 9,84 16,98 60,110 47,14 123,8 134,-9 z"
         id="path3003-5"
         style="fill:#a6d854;fill-opacity:1" />
      <path
         inkscape:connector-curvature="0"
         d="m 4957.7029,1969.9609 c -32,-17 -54,-66 -45,-100 22,-89 162,-97 202,-11 15,30 15,39 4,67 -22,52 -104,75 -161,44 z"
         id="path3005-5"
         style="fill:#a6d854;fill-opacity:1" />
      <path
         inkscape:connector-curvature="0"
         d="m 4984,2711 c -13,-3 -18,-14 -18,-37 0,-17 -9,-94 -19,-171 -11,-77 -25,-198 -31,-270 -12,-128 -12,-129 10,-147 26,-21 83,-38 127,-38 26,0 34,5 37,23 3,12 15,72 26,132 12,61 42,195 66,299 25,104 42,191 40,194 -17,16 -190,28 -238,15 z"
         id="path2995"
         style="fill:#e759a6;fill-opacity:1" />
      <path
         inkscape:connector-curvature="0"
         d="m 4601,2698 c -11,-4 -28,-16 -37,-26 -14,-16 -133,-286 -178,-404 -7,-19 -16,-38 -20,-43 -3,-4 -23,66 -44,155 -20,90 -44,174 -52,186 -21,32 -65,49 -167,63 -104,15 -132,7 -140,-43 -23,-127 -32,-736 -11,-770 12,-19 68,-39 117,-41 l 52,-2 12,185 c 7,102 16,210 20,239 l 8,55 39,-135 c 21,-73 49,-157 61,-186 21,-46 28,-53 65,-63 23,-6 55,-10 71,-8 28,3 33,11 83,133 76,186 129,306 133,301 2,-2 -1,-32 -7,-67 -6,-35 -17,-125 -24,-199 -12,-114 -12,-138 0,-157 17,-26 75,-46 124,-41 41,4 36,-13 86,263 20,110 52,270 70,355 33,152 33,156 15,180 -27,37 -230,89 -276,70 z"
         id="path2997"
         style="fill:#e759a6;fill-opacity:1" />
      <path
         inkscape:connector-curvature="0"
         d="m 3641,2648 c -11,-4 -28,-16 -37,-26 -14,-16 -133,-286 -178,-404 -7,-19 -16,-38 -20,-43 -3,-4 -23,66 -44,155 -20,90 -44,174 -52,186 -21,32 -65,49 -167,63 -108,16 -132,8 -141,-48 -20,-124 -32,-668 -17,-737 8,-40 55,-66 122,-69 l 54,-2 12,185 c 7,102 16,210 20,239 l 8,55 39,-135 c 21,-73 49,-157 61,-186 21,-46 28,-53 65,-63 23,-6 55,-10 71,-8 28,3 33,11 83,133 76,186 129,306 133,301 2,-2 -1,-32 -7,-67 -6,-35 -17,-125 -24,-199 -12,-114 -12,-138 0,-157 17,-26 75,-46 124,-41 41,4 36,-13 86,263 20,110 52,270 70,355 33,152 33,156 15,180 -27,37 -230,89 -276,70 z"
         id="path2999"
         style="fill:#e759a6;fill-opacity:1" />
      <path
         inkscape:connector-curvature="0"
         d="m 2589,2561 c -12,-2 -33,-17 -47,-34 -56,-66 -295,-751 -282,-805 6,-24 58,-52 111,-61 38,-6 48,7 79,104 10,29 21,55 25,58 8,5 180,48 237,60 l 31,6 13,-74 c 7,-41 15,-79 19,-84 13,-21 52,-33 106,-33 43,0 57,4 62,17 4,9 -1,114 -11,232 -10,119 -20,292 -23,384 -5,133 -9,173 -22,188 -26,32 -213,58 -298,42 z m 104,-220 c -2,-5 2,-60 9,-123 21,-183 27,-165 -68,-183 -46,-8 -84,-14 -86,-12 -5,4 133,325 141,325 5,0 6,-3 4,-7 z"
         id="path3001"
         style="fill:#e759a6;fill-opacity:1" />
      <path
         inkscape:connector-curvature="0"
         d="m 1882,2488 c -84,-21 -193,-64 -228,-89 -22,-16 -22,-16 -25,-353 l -2,-336 25,-27 c 13,-14 53,-40 87,-57 52,-25 71,-30 112,-26 58,6 199,70 274,125 55,40 107,114 107,150 0,35 -35,97 -71,127 l -32,27 63,57 c 62,56 110,133 110,178 0,82 -97,212 -175,233 -59,16 -159,12 -245,-9 z m 207,-186 c 9,-24 -25,-80 -72,-121 -43,-37 -133,-93 -151,-93 -17,0 13,171 34,186 52,40 177,58 189,28 z m -76,-385 c 19,-32 -56,-105 -154,-147 -43,-19 -46,-16 -40,46 9,84 16,98 60,110 47,14 123,8 134,-9 z"
         id="path3003"
         style="fill:#e759a6;fill-opacity:1" />
      <path
         inkscape:connector-curvature="0"
         d="m 4925,2003 c -32,-17 -54,-66 -45,-100 22,-89 162,-97 202,-11 15,30 15,39 4,67 -22,52 -104,75 -161,44 z"
         id="path3005"
         style="fill:#e759a6;fill-opacity:1" />
    </g>
    <g
       transform="matrix(2.4010338,0,0,2.4010338,1696.1681,1815.9836)"
       style="font-size:40px;font-style:normal;font-weight:normal;line-height:125%;letter-spacing:0px;word-spacing:0px;fill:#000000;fill-opacity:1;stroke:none;font-family:arial;-inkscape-font-specification:arial"
       id="flowRoot4135">
      <g
         transform="matrix(0.41648726,0,0,0.41648726,-741.06034,-522.71233)"
         style="font-size:590px;fill:#000000;font-family:arial;-inkscape-font-specification:arial"
         id="flowRoot3683">
        <path
           d="m 939.17802,140.98365 c 17.18074,2.6e-4 30.20804,-3.77577 39.08204,-11.32812 8.8734,-7.55181 13.31034,-18.69112 13.31054,-33.41797 -2e-4,-14.537442 -4.43714,-25.582353 -13.31054,-33.134765 -8.874,-7.740541 -21.9013,-11.61098 -39.08204,-11.611328 l -60.32227,0 0,89.492183 60.32227,0 m 3.68164,184.93164 c 21.9008,8e-5 38.3266,-4.62557 49.27734,-13.87695 11.1391,-9.2512 16.7087,-23.22254 16.709,-41.91406 -3e-4,-18.31365 -5.4755,-32.00179 -16.4258,-41.06445 -10.95074,-9.25113 -27.47094,-13.87677 -49.56054,-13.87696 l -64.00391,0 0,110.73242 64.00391,0 M 1044.2464,173.83522 c 23.4111,6.79709 41.5361,19.35242 54.375,37.66601 12.8382,18.31397 19.2574,40.7814 19.2578,67.40235 -4e-4,40.78133 -13.7829,71.17843 -41.3476,91.1914 -27.5655,20.01303 -69.4795,30.01953 -125.74226,30.01953 l -180.96679,0 0,-422.822262 163.6914,0 c 58.71725,4.23e-4 101.19765,8.874112 127.44145,26.6210935 26.4319,17.7477745 39.6481,46.1624595 39.6484,85.2441405 -3e-4,20.579718 -4.8148,38.138298 -14.4433,52.675778 -9.6293,14.34921 -23.6006,25.01651 -41.9141,32.00196"
           style="font-size:580px;font-weight:bold;font-family:DejaVu Sans;-inkscape-font-specification:DejaVu Sans Bold"
           id="path3716"
           inkscape:connector-curvature="0" />
        <path
           d="m 1307.2562,257.38014 c -21.146,1.4e-4 -37.0998,3.58738 -47.8613,10.76172 -10.5731,7.1746 -15.8595,17.74751 -15.8594,31.71875 -10e-5,12.83863 4.2479,22.93953 12.7441,30.30273 8.6848,7.17454 20.6737,10.76178 35.9668,10.76172 19.0688,6e-5 35.117,-6.79681 48.1445,-20.39062 13.0272,-13.78246 19.5408,-30.96344 19.5411,-51.54297 l 0,-11.61133 -52.6758,0 m 154.9121,-38.23242 0,180.96679 -102.2363,0 0,-47.01172 c -13.594,19.25784 -28.887,33.32359 -45.8789,42.19727 -16.9924,8.68489 -37.6662,13.02734 -62.0215,13.02734 -32.8517,0 -59.5672,-9.5345 -80.1465,-28.60351 -20.3907,-19.25777 -30.586,-44.17962 -30.5859,-74.76563 -10e-5,-37.19387 12.7441,-64.47575 38.2324,-81.8457 25.677,-17.3696 65.8918,-26.05448 120.6445,-26.05469 l 59.7559,0 0,-7.92968 c -3e-4,-16.04795 -6.3251,-27.75367 -18.9746,-35.11719 -12.65,-7.55183 -32.3798,-11.32787 -59.1895,-11.32813 -21.7124,2.6e-4 -41.9142,2.17148 -60.6055,6.51367 -18.6915,4.3427 -36.0612,10.85636 -52.1093,19.54102 l 0,-77.314453 c 21.7121,-5.286144 43.5187,-9.250984 65.4199,-11.894531 21.9009,-2.831708 43.8019,-4.247722 65.7031,-4.248047 57.2068,3.25e-4 98.46,11.328439 123.7598,33.984371 25.4879,22.46772 38.232,59.09529 38.2324,109.88282"
           style="font-size:580px;font-weight:bold;font-family:DejaVu Sans;-inkscape-font-specification:DejaVu Sans Bold"
           id="path3718"
           inkscape:connector-curvature="0" />
        <path
           d="m 1803.0062,135.60279 c 12.8382,-19.63513 28.0367,-34.55048 45.5957,-44.746089 17.747,-10.383795 37.1936,-15.575847 58.3398,-15.576172 36.4383,3.25e-4 64.1922,11.234038 83.2617,33.701171 19.0685,22.46772 28.603,55.13045 28.6036,97.98828 l 0,193.14453 -101.9532,0 0,-165.39062 c 0.1884,-2.45426 0.2828,-5.00309 0.2832,-7.64649 0.1884,-2.64305 0.2828,-6.41909 0.2832,-11.32812 -4e-4,-22.46724 -3.3044,-38.7042 -9.9121,-48.71094 -6.6085,-10.19507 -17.2758,-15.29272 -32.0019,-15.29297 -19.2582,2.5e-4 -34.1736,7.92993 -44.7461,23.78907 -10.3845,15.85958 -15.7653,38.79901 -16.1426,68.81835 l 0,155.76172 -101.9531,0 0,-165.39062 c -3e-4,-35.11699 -3.0211,-57.67881 -9.0625,-67.68555 -6.0419,-10.19507 -16.8036,-15.29272 -32.2852,-15.29297 -19.4468,2.5e-4 -34.4565,8.02433 -45.0293,24.07227 -10.573,15.85958 -15.8595,38.61021 -15.8593,68.25195 l 0,156.04492 -101.9532,0 0,-317.187497 101.9532,0 0,46.445317 c 12.4607,-17.93591 26.7153,-31.435253 42.7636,-40.498051 16.2368,-9.06218 34.0786,-13.593425 53.5254,-13.59375 21.9008,3.25e-4 41.253,5.286778 58.0567,15.859375 16.803,10.573216 29.5472,25.394166 38.2324,44.462886"
           style="font-size:580px;font-weight:bold;font-family:DejaVu Sans;-inkscape-font-specification:DejaVu Sans Bold"
           id="path3720"
           inkscape:connector-curvature="0" />
        <path
           d="m 2060.4945,-22.707752 138.7695,0 96.2891,226.279292 96.8554,-226.279292 138.4864,0 0,422.822262 -103.086,0 0,-309.257809 -97.4219,227.978519 -69.1015,0 -97.4219,-227.978519 0,309.257809 -103.3691,0 0,-422.822262"
           style="font-size:580px;font-weight:bold;font-family:DejaVu Sans;-inkscape-font-specification:DejaVu Sans Bold"
           id="path3722"
           inkscape:connector-curvature="0" />
      </g>
    </g>
  </g>
</svg>
