<?xml version="1.0" encoding="UTF-8" standalone="no"?>
<!-- Created with Inkscape (http://www.inkscape.org/) -->

<svg
   xmlns:dc="http://purl.org/dc/elements/1.1/"
   xmlns:cc="http://creativecommons.org/ns#"
   xmlns:rdf="http://www.w3.org/1999/02/22-rdf-syntax-ns#"
   xmlns:svg="http://www.w3.org/2000/svg"
   xmlns="http://www.w3.org/2000/svg"
   xmlns:sodipodi="http://sodipodi.sourceforge.net/DTD/sodipodi-0.dtd"
   xmlns:inkscape="http://www.inkscape.org/namespaces/inkscape"
   width="3000"
   height="600"
   id="svg2"
   version="1.1"
   inkscape:version="0.48.3.1 r9886"
   sodipodi:docname="checkm_logo.svg"
   inkscape:export-filename="/home/uqmimelf/working/tmp/M_logos/checkm_logo.png"
   inkscape:export-xdpi="300"
   inkscape:export-ydpi="300">
  <defs
     id="defs4" />
  <sodipodi:namedview
     id="base"
     pagecolor="#ffffff"
     bordercolor="#666666"
     borderopacity="1.0"
     inkscape:pageopacity="0.0"
     inkscape:pageshadow="2"
     inkscape:zoom="0.39166667"
     inkscape:cx="1500"
     inkscape:cy="260.36415"
     inkscape:document-units="px"
     inkscape:current-layer="layer1"
     showgrid="false"
     inkscape:window-width="1366"
     inkscape:window-height="694"
     inkscape:window-x="-7"
     inkscape:window-y="23"
     inkscape:window-maximized="1" />
  <metadata
     id="metadata7">
    <rdf:RDF>
      <cc:Work
         rdf:about="">
        <dc:format>image/svg+xml</dc:format>
        <dc:type
           rdf:resource="http://purl.org/dc/dcmitype/StillImage" />
        <dc:title></dc:title>
      </cc:Work>
    </rdf:RDF>
  </metadata>
  <g
     inkscape:label="Layer 1"
     inkscape:groupmode="layer"
     id="layer1"
     transform="translate(0,-452.36218)">
    <path
       sodipodi:type="arc"
       style="fill:none;stroke:#000000;stroke-width:29.57933807;stroke-miterlimit:4;stroke-opacity:1;stroke-dasharray:none"
       id="path2987"
       sodipodi:cx="434.3656"
       sodipodi:cy="432.31467"
       sodipodi:rx="373.75644"
       sodipodi:ry="373.75644"
       d="m 808.12204,432.31467 a 373.75644,373.75644 0 1 1 -747.512879,0 373.75644,373.75644 0 1 1 747.512879,0 z"
       transform="matrix(0.74207836,0,0,0.74207836,-8.942354,431.55082)" />
    <path
       style="fill:none;stroke:#000000;stroke-width:21.95018578;stroke-miterlimit:4;stroke-opacity:1"
       d="m 2440.5411,475.00561 c 153.1798,0 277.3566,124.17677 277.3566,277.35657 0,153.1798 -124.1768,277.35652 -277.3566,277.35652"
       id="path2987-1"
       inkscape:connector-curvature="0"
       sodipodi:nodetypes="csc" />
    <path
       style="fill:none;stroke:#000000;stroke-width:22;stroke-miterlimit:4;stroke-opacity:1;stroke-dasharray:none;stroke-dashoffset:0"
       d="m 2441.7946,1029.6938 -2119.73358,0"
       id="path3794"
       inkscape:connector-curvature="0" />
    <path
       style="fill:none;stroke:#000000;stroke-width:22;stroke-miterlimit:4;stroke-opacity:1;stroke-dasharray:none;stroke-dashoffset:0"
       d="m 322.06102,475.03052 2119.73358,0"
       id="rect3789"
       inkscape:connector-curvature="0" />
    <g
       transform="matrix(0.0769393,0,0,-0.0769393,-211.08364,1052.0023)"
       id="g6"
       style="fill:#000000;stroke:none">
      <path
         d="m 6975,6514 c -21,-52 -42,-97 -46,-99 -3,-3 -29,24 -57,58 -27,34 -63,74 -79,89 l -28,27 -30,-104 c -16,-58 -32,-105 -35,-105 -3,0 -39,39 -80,87 l -74,86 -38,-114 c -21,-63 -37,-116 -38,-119 0,-2 -38,33 -84,79 -95,95 -86,99 -111,-49 -9,-52 -18,-96 -20,-98 -1,-2 -47,26 -101,61 l -99,64 -7,-46 c -4,-25 -10,-80 -13,-122 l -6,-75 -125,43 c -68,23 -124,39 -124,35 0,-4 11,-56 24,-115 l 23,-108 -26,6 c -44,11 -224,45 -227,42 -2,-2 57,-176 70,-208 6,-13 -4,-14 -81,-7 -48,5 -105,8 -125,6 l -37,-3 45,-110 c 25,-60 47,-115 50,-121 3,-7 -19,-14 -62,-18 -83,-9 -164,-25 -164,-34 0,-4 34,-48 75,-99 41,-51 75,-97 75,-102 0,-4 -37,-29 -82,-55 -46,-25 -96,-56 -111,-69 l -29,-23 79,-57 c 43,-32 87,-64 97,-71 19,-13 16,-18 -62,-101 -45,-49 -82,-91 -82,-94 0,-4 47,-32 104,-61 100,-53 104,-56 90,-75 -40,-55 -126,-187 -123,-190 9,-7 165,-35 200,-35 21,0 39,-2 39,-5 0,-2 -25,-49 -55,-102 l -55,-98 27,-8 c 27,-7 147,-2 207,10 23,4 28,2 23,-10 -10,-27 -40,-227 -35,-232 4,-5 128,37 210,70 16,6 18,-4 20,-114 l 3,-121 90,60 c 50,33 92,60 95,60 3,0 13,-50 23,-112 9,-61 19,-113 21,-116 3,-2 42,28 88,67 l 83,71 14,-112 c 8,-62 15,-115 17,-116 1,-2 44,28 96,67 61,46 95,66 99,58 4,-7 12,-56 19,-109 7,-54 15,-98 19,-98 3,0 44,31 91,69 54,45 87,65 91,58 4,-7 14,-55 24,-107 10,-52 21,-98 24,-103 4,-4 49,22 100,58 51,37 94,65 96,63 7,-8 35,-120 45,-180 l 12,-67 51,37 c 29,21 71,49 93,64 l 42,27 6,-41 c 4,-23 4,-79 0,-125 l -7,-84 65,24 c 72,28 148,43 148,30 0,-18 -40,-116 -65,-158 l -26,-44 28,-7 c 104,-23 203,-59 203,-73 0,-11 -81,-75 -132,-105 -27,-15 -48,-29 -48,-31 0,-2 17,-14 37,-26 49,-31 153,-118 153,-128 0,-13 -103,-69 -173,-95 l -58,-22 44,-55 c 24,-30 56,-75 71,-100 l 26,-46 -89,-17 c -49,-9 -103,-16 -119,-16 -17,0 -33,-4 -36,-8 -3,-5 13,-59 34,-120 l 40,-112 -28,0 c -33,0 -215,-30 -222,-37 -9,-8 43,-92 91,-146 l 49,-55 -44,-15 c -24,-8 -70,-31 -101,-51 -48,-32 -55,-39 -44,-52 18,-22 95,-59 160,-78 l 56,-17 -45,-89 -45,-90 -41,0 c -76,0 -236.7924,-26.7198 -326,-59 -91.8972,-33.2535 -307.1786,-76.9687 -470.5759,-88.1757 -242.9074,-16.6604 -392.5919,-43.6304 -719.2269,57.033 -202.8244,62.507 -240.5606,143.3677 -35.518,705.2922 119,325 146,407 177,530 44,177 50,324 20,452 -6,26 -29,86 -51,132 -107,224 -408,419 -844,545 -127,36 -212,50 -574,91 0,0 -545.8535,-76.6306 -25,-105 427,-49 448,-53 606,-101 398,-121 648,-284 744,-484 40,-85 55,-152 55,-249 0,-164 -39,-308 -208,-771 -66,-181 -127.7482,-368.3375 -141,-415 -83.998,-295.7759 82.5907,-422.511 367.9511,-458.4611 321.3139,-40.4796 590.8009,-37.4667 872.8867,14.0667 C 6760.8622,1383.4517 6972,1445 7177,1438 c 163,-6 173,-11 173,-100 l 0,-59 51,28 c 28,15 70,44 94,65 l 43,38 11,-50 c 10,-49 37,-109 69,-158 l 15,-23 29,47 c 17,26 39,70 50,99 l 20,53 75,-79 c 42,-44 79,-79 83,-79 11,0 30,74 37,144 8,90 12,94 64,59 71,-47 140,-85 146,-79 3,3 1,54 -5,113 -5,59 -8,109 -7,111 2,2 52,-12 111,-31 95,-30 109,-32 112,-18 1,9 -6,62 -16,119 -17,92 -17,102 -3,102 9,0 65,-5 125,-10 60,-6 110,-9 112,-7 2,2 -11,39 -30,83 -18,43 -37,90 -41,103 l -7,24 126,-7 125,-6 -18,42 c -10,24 -30,69 -45,102 -14,32 -26,61 -26,64 0,3 53,2 118,-1 l 119,-5 -39,122 c -21,66 -38,122 -38,124 0,1 52,2 115,2 63,0 115,2 115,4 0,2 -23,52 -50,111 -28,59 -49,109 -47,112 3,2 59,13 126,25 66,12 121,24 121,27 0,3 -27,51 -60,106 -51,86 -57,101 -42,107 97,39 198,82 204,87 4,4 -26,49 -68,100 -41,52 -71,98 -67,102 4,3 57,28 116,55 l 108,48 -87,87 -88,88 45,19 c 24,10 72,29 106,41 l 61,23 -93,86 -93,86 104,60 c 57,34 104,64 104,67 0,4 -43,35 -95,69 -52,34 -95,65 -95,69 0,3 44,35 98,70 l 97,65 -97,45 c -54,24 -98,48 -98,51 0,4 38,38 84,76 47,38 85,72 85,75 1,4 -44,21 -99,39 -55,19 -100,36 -100,39 0,4 38,36 84,71 47,36 85,68 85,72 1,4 -48,26 -109,49 l -109,43 80,74 c 44,41 77,78 72,82 -4,4 -30,13 -58,19 -27,7 -73,19 -102,27 l -52,15 74,92 c 41,51 71,95 67,98 -4,4 -52,14 -107,24 -55,10 -105,20 -112,22 -7,3 8,43 43,113 30,59 54,111 54,114 0,3 -49,6 -108,6 l -109,0 43,108 c 24,59 44,111 44,115 0,8 -167,0 -202,-10 -26,-7 -23,10 23,125 23,57 40,104 38,105 -2,2 -60,0 -129,-3 -69,-3 -127,-5 -129,-3 -2,2 10,51 27,110 16,60 29,109 27,111 -4,4 -217,-36 -223,-43 -3,-2 33,-44 79,-92 68,-71 171,-191 220,-258 5,-6 -17,-53 -47,-105 -30,-52 -66,-114 -80,-137 l -24,-41 221,-128 c 205,-118 223,-130 240,-168 10,-23 19,-48 19,-58 0,-9 -56,-114 -126,-234 -69,-119 -126,-221 -127,-226 -1,-4 90,-61 203,-127 l 205,-118 8,-106 9,-107 -85,-147 c -46,-82 -94,-165 -106,-185 l -22,-36 94,-54 c 110,-61 102,-29 61,-258 -23,-133 -88,-388 -102,-402 -4,-4 -84,37 -177,92 -128,74 -173,95 -181,87 -8,-9 -246,-416 -290,-498 -2,-4 84,-57 192,-119 133,-77 194,-117 190,-126 -23,-60 -327,-474 -348,-474 -4,0 -82,43 -174,96 -91,53 -167,94 -168,92 -2,-2 -282,-490 -292,-509 -2,-3 30,-25 71,-49 41,-23 75,-45 75,-49 0,-12 -72,-48 -152,-75 -71,-24 -108,-32 -108,-22 0,3 23,43 50,91 28,48 50,90 50,94 0,4 -100,66 -222,136 -123,71 -237,137 -255,148 l -32,19 c -29.1529,131.3571 40.7432,147.9854 -81,50 l 36,-23 c 30,-18 38,-20 48,-8 18,20 286,487 286,499 0,5 -18,19 -40,30 -22,11 -40,24 -40,29 0,5 9,30 20,56 28,64 46,142 65,270 18,116 15,199 -9,279 -8,25 -13,46 -12,46 2,0 74,-41 161,-91 130,-75 159,-89 170,-78 16,19 285,486 285,497 0,9 -492,296 -507,295 -4,0 -59,-89 -122,-197 l -113,-197 -54,60 c -81,89 -172,152 -313,217 -69,32 -128,59 -130,60 -1,2 43,82 99,179 56,97 100,180 98,185 -2,5 -115,75 -253,154 -214,124 -252,143 -262,130 -6,-8 -64,-107 -129,-220 -65,-112 -123,-204 -129,-204 -5,0 -65,22 -133,50 -141,56 -274,125 -348,178 l -51,37 133,230 c 74,127 133,236 131,242 -1,7 -114,78 -252,158 -228,132 -251,143 -263,127 -7,-9 -36,-59 -65,-109 -29,-51 -55,-93 -59,-93 -15,0 -69,312 -56,326 3,2 44,-18 91,-46 47,-27 89,-50 94,-50 4,0 73,113 151,250 79,138 147,252 152,255 4,2 120,-61 258,-140 138,-80 255,-145 259,-145 4,0 72,113 151,250 79,137 147,252 151,254 4,3 118,-58 252,-136 134,-77 251,-143 259,-145 11,-2 57,71 158,247 79,137 147,252 151,254 4,3 120,-60 257,-139 137,-80 254,-144 259,-144 6,0 41,55 80,122 38,67 92,162 121,210 l 51,88 56,-46 56,-45 5,32 c 3,18 7,76 9,129 l 3,97 -51,-15 c -27,-8 -79,-26 -115,-39 -35,-13 -66,-22 -68,-20 -2,2 -10,48 -18,102 -17,115 -24,144 -33,144 -3,0 -53,-25 -110,-55 -57,-30 -105,-55 -106,-55 -2,0 -5,15 -9,33 -10,54 -59,207 -66,207 -3,0 -47,-34 -98,-76 -59,-48 -94,-70 -97,-62 -2,7 -16,55 -31,106 -15,50 -31,92 -36,92 -5,0 -46,-36 -92,-80 -46,-44 -86,-80 -89,-80 -3,0 -27,41 -53,90 -27,50 -53,95 -59,100 -8,7 -32,-19 -79,-86 -37,-53 -69,-94 -71,-92 -1,2 -31,45 -65,96 -34,50 -65,92 -69,92 -3,0 -24,-43 -46,-96 z m 530,-139 c 107,-19 247,-54 257,-63 9,-9 -216,-398 -228,-395 -5,1 -119,65 -254,143 -135,78 -248,142 -253,143 -4,1 -73,-110 -152,-247 -80,-138 -148,-253 -152,-257 -5,-4 -123,60 -263,141 -140,82 -258,145 -261,142 -4,-4 -66,-110 -139,-237 -73,-126 -138,-240 -146,-252 -14,-22 -15,-22 -172,69 -86,50 -160,93 -164,97 -13,11 81,140 166,229 72,75 218,196 253,209 7,3 54,-18 103,-46 49,-28 93,-51 97,-51 5,0 44,63 88,140 l 80,140 80,25 c 108,33 244,65 277,65 15,0 82,-32 156,-75 71,-41 133,-75 138,-75 5,0 32,41 59,91 l 50,91 145,-5 c 80,-3 186,-13 235,-22 z"
         id="path8"
         inkscape:connector-curvature="0"
         sodipodi:nodetypes="ccccccsccscsccccccccscccscccccccsssccccccscccssccccccccccscccccccccscssccccccccccccscccscscsccscccscccsccccccccccsssscccccccccscssscscccccccccccsccscccccscscccccccscccssscccscccccccccccccccssscccscccscccccccccccsccssccscccsscscccsccccscccccccccccscccccsccccscscsccccccssscccsccsccccccsscccsccccccccsccscccssccccccsccccccccccscssscscccssscccccsccccsccccsccccccsssccscscccc" />
      <path
         d="m 8042,5578 c -11,-18 -70,-121 -132,-228 -62,-107 -121,-209 -131,-226 l -19,-31 254,-147 c 139,-80 257,-146 262,-146 9,1 294,491 294,507 0,5 -96,64 -212,131 -117,67 -232,133 -255,147 l -41,25 -20,-32 z"
         id="path10"
         inkscape:connector-curvature="0" />
      <path
         d="m 7222,5357 c -11,-17 -73,-124 -137,-237 -65,-113 -124,-214 -132,-226 -13,-20 -3,-27 241,-167 140,-81 258,-147 263,-147 9,1 293,491 293,507 0,5 -93,63 -207,128 -114,66 -228,132 -254,147 l -48,28 -19,-33 z"
         id="path12"
         inkscape:connector-curvature="0" />
      <path
         d="m 6402,5138 c -11,-18 -73,-125 -137,-238 -65,-113 -124,-214 -132,-226 -12,-19 -1,-27 242,-167 140,-81 258,-147 262,-147 9,1 293,492 293,507 0,6 -105,70 -232,143 -128,74 -243,140 -254,147 -20,13 -23,11 -42,-19 z"
         id="path14"
         inkscape:connector-curvature="0" />
      <path
         d="m 8247,4733 c -19,-32 -78,-134 -132,-228 -54,-93 -106,-184 -116,-201 l -19,-31 256,-148 c 215,-124 258,-145 269,-134 16,18 285,485 285,496 0,5 -96,64 -212,131 -117,67 -232,133 -255,147 l -41,25 -35,-57 z"
         id="path16"
         inkscape:connector-curvature="0" />
      <path
         d="m 7427,4513 c -19,-32 -78,-134 -132,-228 -54,-93 -106,-184 -116,-201 l -19,-31 255,-147 c 140,-80 258,-146 262,-146 8,1 286,481 291,503 1,7 -95,69 -230,147 -128,73 -243,140 -254,147 -21,13 -24,11 -57,-44 z"
         id="path18"
         inkscape:connector-curvature="0" />
      <path
         d="m 8486,3948 c -7,-13 -73,-126 -146,-253 -73,-126 -134,-233 -136,-236 -2,-4 112,-73 252,-154 213,-122 258,-145 269,-134 16,18 285,486 285,496 0,5 -93,62 -207,128 -114,66 -229,132 -255,148 l -47,27 -15,-22 z"
         id="path20"
         inkscape:connector-curvature="0" />
      <path
         d="m 7887,2908 c -11,-17 -261,-449 -283,-489 -2,-3 112,-72 253,-153 210,-122 258,-146 268,-134 16,17 285,486 285,496 0,5 -105,68 -232,142 -128,74 -243,140 -255,148 -19,12 -23,11 -36,-10 z"
         id="path22"
         inkscape:connector-curvature="0" />
    </g>
    <g
       transform="matrix(1.4143851,0,0,1.4143851,-222.89809,351.6397)"
       style="font-size:40px;font-style:normal;font-weight:normal;line-height:125%;letter-spacing:0px;word-spacing:0px;fill:#000000;fill-opacity:1;stroke:none;font-family:arial;-inkscape-font-specification:arial"
       id="flowRoot2990">
      <path
         d="m 823.42187,390.06335 c -11.87001,6.15887 -24.24369,10.806 -37.12109,13.94141 -12.87778,3.13541 -26.31527,4.70312 -40.3125,4.70313 -41.76834,-1e-5 -74.85815,-11.64583 -99.26953,-34.9375 -24.41149,-23.4036 -36.6172,-55.09367 -36.61719,-95.07032 -10e-6,-40.08837 12.2057,-71.77845 36.61719,-95.07031 24.41138,-23.4034 57.50119,-35.10521 99.26953,-35.10547 13.99723,2.6e-4 27.43472,1.56796 40.3125,4.70313 12.8774,3.13566 25.25108,7.78279 37.12109,13.9414 l 0,51.90235 c -11.98198,-8.17429 -23.79577,-14.16517 -35.4414,-17.97266 -11.64602,-3.80708 -23.90772,-5.71073 -36.78516,-5.71094 -23.06784,2.1e-4 -41.20845,7.39083 -54.42187,22.17188 -13.21363,14.78142 -19.8204,35.16161 -19.82032,61.14062 -8e-5,25.86729 6.60669,46.19149 19.82032,60.97266 13.21342,14.7813 31.35403,22.17192 54.42187,22.17187 12.87744,5e-5 25.13914,-1.9036 36.78516,-5.71093 11.64563,-3.80724 23.45942,-9.79812 35.4414,-17.97266 l 0,51.90234"
         style="font-size:344px;font-weight:bold;font-family:Vemana2000;-inkscape-font-specification:Vemana2000"
         id="path2999"
         inkscape:connector-curvature="0" />
      <path
         d="m 1035.6172,294.1532 0,114.55469 -60.4688,0 0,-18.64453 0,-68.69922 c -1e-4,-16.46083 -0.392,-27.77072 -1.1757,-33.92969 -0.6721,-6.15872 -1.9038,-10.69387 -3.69536,-13.60546 -2.35171,-3.91914 -5.54311,-6.94257 -9.57422,-9.07032 -4.03138,-2.23943 -8.62253,-3.35923 -13.77343,-3.35937 -12.54179,1.4e-4 -22.39594,4.87123 -29.5625,14.61328 -7.16676,9.63033 -10.75009,23.01183 -10.75,40.14453 l 0,92.55078 -60.13282,0 0,-261.35937 60.13282,0 0,100.78125 c 9.07021,-10.97379 18.70041,-19.03628 28.89062,-24.1875 10.18998,-5.26283 21.44387,-7.89434 33.76172,-7.89453 21.72377,1.9e-4 38.18467,6.66294 49.38277,19.98828 11.3097,13.32568 16.9647,32.69805 16.9649,58.11718"
         style="font-size:344px;font-weight:bold;font-family:Vemana2000;-inkscape-font-specification:Vemana2000"
         id="path3001"
         inkscape:connector-curvature="0" />
      <path
         d="m 1253.5078,309.27039 0,17.13281 -140.5898,0 c 1.4556,14.10944 6.5507,24.69146 15.2851,31.74609 8.7343,7.05473 20.94,10.58207 36.6172,10.58203 12.6535,4e-5 25.5871,-1.84762 38.8008,-5.54297 13.3253,-3.80724 26.9868,-9.51818 40.9844,-17.13281 l 0,46.35938 c -14.2216,5.375 -28.4429,9.40625 -42.6641,12.09375 -14.2215,2.79947 -28.4428,4.19921 -42.6641,4.19922 -34.0417,-1e-5 -60.5248,-8.6224 -79.4492,-25.86719 -18.8125,-17.35673 -28.2187,-41.65619 -28.2187,-72.89844 0,-30.68217 9.2382,-54.81365 27.7148,-72.39453 18.5885,-17.58055 44.1197,-26.3709 76.5938,-26.37109 29.5623,1.9e-4 53.1899,8.90252 70.8828,26.70703 17.8045,17.80483 26.7068,41.60038 26.707,71.38672 m -61.8125,-19.98829 c -10e-5,-11.42175 -3.3595,-20.60403 -10.0781,-27.54687 -6.6069,-7.05454 -15.2853,-10.58188 -26.0352,-10.58203 -11.6459,1.5e-4 -21.1081,3.30353 -28.3867,9.91015 -7.2787,6.49493 -11.8139,15.90117 -13.6055,28.21875 l 78.1055,0"
         style="font-size:344px;font-weight:bold;font-family:Vemana2000;-inkscape-font-specification:Vemana2000"
         id="path3003"
         inkscape:connector-curvature="0" />
      <path
         d="m 1434.8711,221.5907 0,49.04687 c -8.1747,-5.59882 -16.4051,-9.74204 -24.6914,-12.42968 -8.1746,-2.68736 -16.685,-4.03111 -25.5313,-4.03125 -16.797,1.4e-4 -29.8985,4.92722 -39.3046,14.78125 -9.2944,9.74231 -13.9415,23.40375 -13.9415,40.98437 0,17.58081 4.6471,31.29824 13.9415,41.15234 9.4061,9.74223 22.5076,14.61332 39.3046,14.61329 9.4061,3e-5 18.3085,-1.3997 26.7071,-4.19922 8.5102,-2.79944 16.3488,-6.94266 23.5156,-12.42969 l 0,49.21484 c -9.4064,3.47136 -18.9806,6.04688 -28.7227,7.72657 -9.6303,1.79166 -19.3165,2.68749 -29.0586,2.6875 -33.9297,-1e-5 -60.4688,-8.67839 -79.6171,-26.03516 -19.1485,-17.46871 -28.7227,-41.71218 -28.7227,-72.73047 0,-31.0181 9.5742,-55.20558 28.7227,-72.5625 19.1483,-17.46857 45.6874,-26.20293 79.6171,-26.20312 9.8541,1.9e-4 19.5403,0.89602 29.0586,2.6875 9.6301,1.67987 19.2043,4.25539 28.7227,7.72656"
         style="font-size:344px;font-weight:bold;font-family:Vemana2000;-inkscape-font-specification:Vemana2000"
         id="path3005"
         inkscape:connector-curvature="0" />
      <path
         d="m 1463.1094,147.34852 60.1328,0 0,142.26953 69.2031,-69.03516 69.875,0 -91.8789,86.33594 99.1016,101.78906 -72.8985,0 -73.4023,-78.4414 0,78.4414 -60.1328,0 0,-261.35937"
         style="font-size:344px;font-weight:bold;font-family:Vemana2000;-inkscape-font-specification:Vemana2000"
         id="path3007"
         inkscape:connector-curvature="0" />
      <path
         d="m 1680.9063,157.93055 82.3046,0 57.1094,134.20703 57.4453,-134.20703 82.1367,0 0,250.77734 -61.1406,0 0,-183.42187 -57.7812,135.21484 -40.9844,0 -57.7813,-135.21484 0,183.42187 -61.3085,0 0,-250.77734"
         style="font-size:344px;font-weight:bold;font-family:Vemana2000;-inkscape-font-specification:Vemana2000"
         id="path3009"
         inkscape:connector-curvature="0" />
    </g>
  </g>
</svg>
