<?xml version="1.0" encoding="UTF-8" standalone="no"?>
<!-- Created with Inkscape (http://www.inkscape.org/) -->

<svg
   xmlns:ooo="http://xml.openoffice.org/svg/export"
   xmlns:dc="http://purl.org/dc/elements/1.1/"
   xmlns:cc="http://creativecommons.org/ns#"
   xmlns:rdf="http://www.w3.org/1999/02/22-rdf-syntax-ns#"
   xmlns:svg="http://www.w3.org/2000/svg"
   xmlns="http://www.w3.org/2000/svg"
   xmlns:sodipodi="http://sodipodi.sourceforge.net/DTD/sodipodi-0.dtd"
   xmlns:inkscape="http://www.inkscape.org/namespaces/inkscape"
   width="3000"
   height="600"
   id="svg2"
   version="1.1"
   inkscape:version="0.48.3.1 r9886"
   sodipodi:docname="finishm_logo.svg"
   inkscape:export-filename="/home/uqmimelf/working/tmp/M_logos/finishm_logo.png"
   inkscape:export-xdpi="300"
   inkscape:export-ydpi="300">
  <defs
     id="defs4">
 <g
   transform="scale(0.00048828125,-0.00048828125)"
   id="bullet-char-template(8211)">
   <path
   id="path3037"
   d="M -4,459 L 1135,459 1135,606 -4,606 -4,459 Z" />

  </g>

  <g
   transform="scale(0.00048828125,-0.00048828125)"
   id="bullet-char-template(8226)">
   <path
   id="path3034"
   d="M 346,457 C 273,457 209,483 155,535 101,586 74,649 74,723 74,796 101,859 155,911 209,963 273,989 346,989 419,989 480,963 531,910 582,859 608,796 608,723 608,648 583,586 532,535 482,483 420,457 346,457 Z" />

  </g>

  <g
   transform="scale(0.00048828125,-0.00048828125)"
   id="bullet-char-template(9679)">
   <path
   id="path3031-4"
   d="M 813,0 C 632,0 489,54 383,161 276,268 223,411 223,592 223,773 276,916 383,1023 489,1130 632,1184 813,1184 992,1184 1136,1130 1245,1023 1353,916 1407,772 1407,592 1407,412 1353,268 1245,161 1136,54 992,0 813,0 Z" />

  </g>

  <g
   transform="scale(0.00048828125,-0.00048828125)"
   id="bullet-char-template(10004)">
   <path
   id="path3028"
   d="M 285,-33 C 182,-33 111,30 74,156 52,228 41,333 41,471 41,549 55,616 82,672 116,743 169,778 240,778 293,778 328,747 346,684 L 369,508 C 377,444 397,411 428,410 L 1163,1116 C 1174,1127 1196,1133 1229,1133 1271,1133 1292,1118 1292,1087 L 1292,965 C 1292,929 1282,901 1262,881 L 442,47 C 390,-6 338,-33 285,-33 Z" />

  </g>

  <g
   transform="scale(0.00048828125,-0.00048828125)"
   id="bullet-char-template(10007)">
   <path
   id="path3025-5"
   d="M 0,-2 C -7,14 -16,27 -25,37 L 356,567 C 262,823 215,952 215,954 215,979 228,992 255,992 264,992 276,990 289,987 310,991 331,999 354,1012 L 381,999 492,748 772,1049 836,1024 860,1049 C 881,1039 901,1025 922,1006 886,937 835,863 770,784 769,783 710,716 594,584 L 774,223 C 774,196 753,168 711,139 L 727,119 C 717,90 699,76 672,76 641,76 570,178 457,381 L 164,-76 C 142,-110 111,-127 72,-127 30,-127 9,-110 8,-76 1,-67 -2,-52 -2,-32 -2,-23 -1,-13 0,-2 Z" />

  </g>

  <g
   transform="scale(0.00048828125,-0.00048828125)"
   id="bullet-char-template(10132)">
   <path
   id="path3022"
   d="M 2015,739 L 1276,0 717,0 1260,543 174,543 174,936 1260,936 717,1481 1274,1481 2015,739 Z" />

  </g>

  <g
   transform="scale(0.00048828125,-0.00048828125)"
   id="bullet-char-template(10146)">
   <path
   id="path3019"
   d="M 174,0 L 602,739 174,1481 1456,739 174,0 Z M 1358,739 L 309,1346 659,739 1358,739 Z" />

  </g>

  <g
   transform="scale(0.00048828125,-0.00048828125)"
   id="bullet-char-template(57354)">
   <path
   id="path3016"
   d="M 8,1128 L 1137,1128 1137,0 8,0 8,1128 Z" />

  </g>

  <g
   transform="scale(0.00048828125,-0.00048828125)"
   id="bullet-char-template(57356)">
   <path
   id="path3013"
   d="M 580,1141 L 1163,571 580,0 -4,571 580,1141 Z" />

  </g>

  
 <g
   id="g3008"
   ooo:id-list="id3 id4 id5 id6 id7 id8 id9 id10 id11 id12 id13 id14 id15 id16 id17 id18 id19 id20 id21 id22 id23 id24 id25 id26 id27 id28 id29 id30 id31 id32 id33 id34 id35 id36 id37 id38 id39 id40 id41 id42 id43 id44 id45 id46 id47 id48 id49 id50 id51 id52 id53 id54 id55 id56 id57 id58 id59 id60 id61 id62 id63 id64 id65 id66 id67 id68 id69 id70 id71 id72 id73 id74 id75 id76 id77 id78 id79 id80 id81 id82 id83 id84 id85 id86 id87 id88 id89 id90 id91 id92 id93 id94 id95 id96 id97 id98 id99 id100 id101 id102 id103 id104 id105 id106 id107 id108 id109 id110 id111 id112 id113 id114 id115 id116 id117 id118 id119 id120 id121 id122 id123 id124 id125 id126 id127 id128 id129 id130 id131 id132 id133 id134 id135 id136 id137 id138 id139 id140 id141 id142 id143 id144 id145 id146 id147 id148 id149 id150 id151 id152 id153 id154 id155 id156 id157 id158 id159 id160 id161 id162"
   ooo:slide="id1" />

  
 <clipPath
   clipPathUnits="userSpaceOnUse"
   id="presentation_clip_path">
   <rect
   id="rect3004"
   height="29700"
   width="21000"
   y="0"
   x="0" />

  </clipPath>

  </defs>
  <sodipodi:namedview
     id="base"
     pagecolor="#ffffff"
     bordercolor="#666666"
     borderopacity="1.0"
     inkscape:pageopacity="0.0"
     inkscape:pageshadow="2"
     inkscape:zoom="0.35"
     inkscape:cx="1357.1351"
     inkscape:cy="260.36415"
     inkscape:document-units="px"
     inkscape:current-layer="layer1"
     showgrid="false"
     inkscape:window-width="1366"
     inkscape:window-height="694"
     inkscape:window-x="-7"
     inkscape:window-y="23"
     inkscape:window-maximized="1" />
  <metadata
     id="metadata7">
    <rdf:RDF>
      <cc:Work
         rdf:about="">
        <dc:format>image/svg+xml</dc:format>
        <dc:type
           rdf:resource="http://purl.org/dc/dcmitype/StillImage" />
        <dc:title />
      </cc:Work>
    </rdf:RDF>
  </metadata>
  <g
     inkscape:label="Layer 1"
     inkscape:groupmode="layer"
     id="layer1"
     transform="translate(0,-452.36218)">
    <path
       sodipodi:type="arc"
       style="fill:none;stroke:#000000;stroke-width:29.57933807;stroke-miterlimit:4;stroke-opacity:1;stroke-dasharray:none"
       id="path2987"
       sodipodi:cx="434.3656"
       sodipodi:cy="432.31467"
       sodipodi:rx="373.75644"
       sodipodi:ry="373.75644"
       d="m 808.12204,432.31467 c 0,206.41998 -167.33646,373.75644 -373.75644,373.75644 -206.41998,0 -373.756439,-167.33646 -373.756439,-373.75644 0,-206.41998 167.336459,-373.756442 373.756439,-373.756442 206.41998,0 373.75644,167.336462 373.75644,373.756442 z"
       transform="matrix(0.74207836,0,0,0.74207836,-8.942354,431.55082)" />
    <path
       style="fill:none;stroke:#000000;stroke-width:21.95018578;stroke-miterlimit:4;stroke-opacity:1"
       d="m 2440.5411,475.00565 c 153.1798,0 277.3566,124.17677 277.3566,277.35657 0,153.1798 -124.1768,277.35648 -277.3566,277.35648"
       id="path2987-1"
       inkscape:connector-curvature="0"
       sodipodi:nodetypes="csc" />
    <path
       style="fill:none;stroke:#000000;stroke-width:22;stroke-miterlimit:4;stroke-opacity:1;stroke-dasharray:none;stroke-dashoffset:0"
       d="m 2441.7946,1029.6938 -2119.73358,0"
       id="path3794"
       inkscape:connector-curvature="0" />
    <path
       style="fill:none;stroke:#000000;stroke-width:22;stroke-miterlimit:4;stroke-opacity:1;stroke-dasharray:none;stroke-dashoffset:0"
       d="m 322.06102,475.03052 2119.73358,0"
       id="rect3789"
       inkscape:connector-curvature="0" />
    <g
       transform="matrix(1.99663,0,0,1.99663,459.13827,734.8973)"
       style="font-size:40px;font-style:normal;font-weight:normal;line-height:125%;letter-spacing:0px;word-spacing:0px;fill:#000000;fill-opacity:1;stroke:none;font-family:arial;-inkscape-font-specification:arial"
       id="flowRoot3012">
      <path
         d="m 90.59375,-78.584889 121.75781,0 0,34.101563 -76.64062,0 0,32.578125 72.07031,0 0,34.101562 -72.07031,0 0,74.179688 -45.11719,0 0,-174.960938"
         style="font-size:240px;font-weight:bold;font-family:Vemana2000;-inkscape-font-specification:Vemana2000"
         id="path3021"
         inkscape:connector-curvature="0" />
      <path
         d="m 234.76301,-34.873951 41.95312,0 0,131.25 -41.95312,0 0,-131.25 m 0,-51.09375 41.95312,0 0,34.21875 -41.95312,0 0,-34.21875"
         style="font-size:240px;font-weight:bold;font-family:Vemana2000;-inkscape-font-specification:Vemana2000"
         id="path3023"
         inkscape:connector-curvature="0" />
      <path
         d="m 441.33315,16.454174 0,79.921875 -42.1875,0 0,-13.007813 0,-48.164062 c -10e-5,-11.328053 -0.27354,-19.140545 -0.82031,-23.4375 -0.46886,-4.2967864 -1.32823,-7.4608458 -2.57812,-9.4921878 -1.64073,-2.73427821 -3.86729,-4.8436511 -6.67969,-6.328125 -2.8126,-1.5623981 -6.01572,-2.3436473 -9.60938,-2.34375 -8.75008,1.027e-4 -15.62507,3.3985368 -20.625,10.1953125 -5.00006,6.7188363 -7.50006,16.0547643 -7.5,28.0078123 l 0,64.570313 -41.95312,0 0,-131.25 41.95312,0 0,19.21875 c 6.32806,-7.656131 13.0468,-13.281125 20.15625,-16.875 7.10929,-3.671743 14.96085,-5.507678 23.55469,-5.507813 15.15613,1.35e-4 26.6405,4.648567 34.45313,13.945313 7.89047,9.296986 11.83578,22.8125973 11.83593,40.546875"
         style="font-size:240px;font-weight:bold;font-family:Vemana2000;-inkscape-font-specification:Vemana2000"
         id="path3025"
         inkscape:connector-curvature="0" />
      <path
         d="m 471.46466,-34.873951 41.95312,0 0,131.25 -41.95312,0 0,-131.25 m 0,-51.09375 41.95312,0 0,34.21875 -41.95312,0 0,-34.21875"
         style="font-size:240px;font-weight:bold;font-family:Vemana2000;-inkscape-font-specification:Vemana2000"
         id="path3027"
         inkscape:connector-curvature="0" />
      <path
         d="m 655.37758,-30.772389 0,31.8750002 c -8.98449,-3.749901 -17.65635,-6.5623982 -26.01562,-8.4375 -8.35947,-1.8748945 -16.25008,-2.8123932 -23.67188,-2.8125002 -7.96881,1.07e-4 -13.90631,1.0157307 -17.8125,3.0468752 -3.82817,1.9532265 -5.74223,5.0000984 -5.74219,9.140625 -4e-5,3.3594659 1.44527,5.9375884 4.33594,7.734375 2.9687,1.7969598 8.24213,3.1250838 15.82031,3.9843748 l 7.38282,1.054688 c 21.48427,2.734453 35.93738,7.226636 43.35937,13.476562 7.42175,6.250062 11.13268,16.05474 11.13281,29.414063 -1.3e-4,13.984399 -5.15637,24.492201 -15.46875,31.523437 -10.3126,7.03125 -25.70321,10.546872 -46.17187,10.546875 -8.67194,-3e-6 -17.6563,-0.703128 -26.95313,-2.109375 -9.21878,-1.328125 -18.71096,-3.359373 -28.47656,-6.09375 l 0,-31.875 c 8.35935,4.062533 16.91403,7.109405 25.66406,9.140625 8.82808,2.031276 17.77338,3.0469 26.83594,3.046875 8.20305,2.5e-5 14.37492,-1.132787 18.51563,-3.398437 4.14053,-2.265595 6.21084,-5.624967 6.21093,-10.078125 -9e-5,-3.749959 -1.4454,-6.523393 -4.33593,-8.320313 -2.81259,-1.874952 -8.47664,-3.320263 -16.99219,-4.335937 l -7.38281,-0.9375 c -18.67192,-2.343696 -31.75785,-6.67963 -39.25782,-13.007813 -7.50001,-6.328054 -11.25001,-15.937419 -11.25,-28.8281248 -10e-6,-13.9061432 4.76561,-24.2186322 14.29688,-30.9375002 9.53121,-6.718619 24.14057,-10.07799 43.82812,-10.078125 7.7343,1.35e-4 15.85929,0.586071 24.375,1.757813 8.51553,1.172006 17.77333,3.007942 27.77344,5.507812"
         style="font-size:240px;font-weight:bold;font-family:Vemana2000;-inkscape-font-specification:Vemana2000"
         id="path3029"
         inkscape:connector-curvature="0" />
      <path
         d="m 822.12969,16.454174 0,79.921875 -42.1875,0 0,-13.007813 0,-47.929687 c -10e-5,-11.484303 -0.27354,-19.37492 -0.82031,-23.671875 -0.46886,-4.2967864 -1.32823,-7.4608458 -2.57812,-9.4921878 -1.64073,-2.73427821 -3.86729,-4.8436511 -6.67969,-6.328125 -2.8126,-1.5623981 -6.01572,-2.3436473 -9.60938,-2.34375 -8.75008,1.027e-4 -15.62507,3.3985368 -20.625,10.1953125 -5.00006,6.7188363 -7.50006,16.0547643 -7.5,28.0078123 l 0,64.570313 -41.95312,0 0,-182.34375 41.95312,0 0,70.3125 c 6.32806,-7.656131 13.0468,-13.281125 20.15625,-16.875 7.10929,-3.671743 14.96085,-5.507678 23.55469,-5.507813 15.15613,1.35e-4 26.6405,4.648567 34.45313,13.945313 7.89047,9.296986 11.83578,22.8125973 11.83593,40.546875"
         style="font-size:240px;font-weight:bold;font-family:Vemana2000;-inkscape-font-specification:Vemana2000"
         id="path3031"
         inkscape:connector-curvature="0" />
      <path
         d="m 854.1362,-78.584889 57.42187,0 39.84377,93.632813 40.07964,-93.632813 57.30492,0 0,174.960938 -42.6562,0 0,-127.96875 -40.31374,94.335937 -28.59432,0 -40.3125,-94.335937 0,127.96875 -42.77344,0 0,-174.960938"
         style="font-size:240px;font-weight:bold;font-family:Vemana2000;-inkscape-font-specification:Vemana2000"
         id="path3033"
         inkscape:connector-curvature="0" />
    </g>
    <g
       transform="matrix(0.16586429,0,0,-0.16586429,106.45329,1270.9064)"
       id="g3038">
      <path
         sodipodi:nodetypes="ccccsccsccsccccscccscccsccccsccsscscccccccccccscccccccccscccscccccccccccccccscccccccccscccsccccccccccccccscccscccccccccccccccccccccccssscccccccccccccccccccscsccccsccscccsccccccsccccccccsccccccccccccccccccccsccc"
         inkscape:connector-curvature="0"
         id="path14"
         style="fill:#000000;fill-opacity:1;fill-rule:nonzero;stroke:none"
         d="m 1932.6457,4492.7237 -74.3352,-6.4339 -1.0629,-20.128 -1.063,-20.128 -10.2619,0 c -8.9193,0 -10.7575,-1.2229 -13.9784,-9.2708 -6.2898,-15.7762 -4.4036,-20.0068 21.1713,-47.3343 13.4748,-14.3937 24.6638,-27.7903 24.6638,-29.5255 0,-1.7407 -5.3627,-11.9534 -11.9083,-22.6894 -20.7477,-34.0039 -57.9432,-122.2332 -71.3861,-169.3251 -14.6177,-51.2344 -22.9055,-104.6281 -22.9055,-147.6163 l 0,-29.5199 -32.5681,-3.1564 c -48.8562,-4.7372 -68.5409,-11.7551 -102.0281,-36.367 -15.273,-11.2262 -29.571,-19.7809 -31.609,-18.9105 -2.4137,1.03 -3.7164,20.8606 -3.7164,56.7263 0,47.8246 -0.9271,57.2772 -6.9852,71.2411 -15.5208,35.7611 -77.2603,82.1315 -138.1527,103.7467 -16.4319,5.839 -49.2078,14.6747 -72.2172,19.467 -41.3915,8.6318 -43.1897,8.786 -103.0111,8.786 -59.8294,0 -61.6196,-0.1542 -103.0111,-8.786 -23.0095,-4.7923 -56.4247,-13.8428 -73.6319,-19.9352 -57.7035,-20.4365 -124.21033,-71.6047 -140.25701,-107.9111 -6.08125,-13.7602 -7.00914,-23.1797 -7.00914,-71.2467 0,-36.108 -1.29233,-55.933 -3.71476,-56.9687 -2.03561,-0.8703 -16.3344,7.6844 -31.60345,18.9106 -33.4888,24.6119 -53.17911,31.6297 -102.03126,36.367 l -32.56811,3.1563 0,29.5255 c 0,42.9827 -8.28548,96.3764 -22.91196,147.6108 -13.43963,47.0919 -50.6352,135.3268 -71.37729,169.3251 -6.54958,10.736 -11.90993,20.9488 -11.90993,22.695 0,1.7296 11.18904,15.1262 24.65985,29.5198 25.57495,27.3277 27.46749,31.5581 21.17046,47.3345 -3.21605,8.0478 -5.05505,9.2707 -13.97112,9.2707 l -10.26514,0 -1.06136,20.128 -1.06136,20.1279 -77.87972,6.6213 c -87.43916,7.4309 -106.57722,8.147 -110.04822,4.1148 -1.38345,-1.603 -8.44213,-21.2242 -15.6223,-43.4289 -9.78402,-30.2525 -12.20085,-41.7377 -9.55624,-45.3788 1.92611,-2.6606 13.21825,-13.6665 24.77893,-24.1602 l 21.2416,-19.2742 -4.42687,-75.8793 c -2.43202,-41.7212 -5.57294,-90.1572 -6.97477,-107.5971 -5.54736,-69.0487 1.2268,-176.5964 14.2988,-226.9108 13.33654,-51.3335 54.63369,-125.4061 98.62181,-176.8883 10.68953,-12.5042 10.93009,-13.4187 7.38316,-27.8123 -11.72211,-47.5767 23.54015,-122.5582 76.18858,-162.0099 30.23279,-22.6508 53.5004,-34.5106 94.91904,-48.3589 34.75076,-11.6229 76.46271,-17.82 120.71297,-17.9356 23.00866,-0.061 26.98637,-1.1073 32.69597,-8.6098 3.60288,-4.7318 7.3528,-89.298 14.77034,-333.0427 1.73909,-57.0898 3.11215,-105.3385 3.0594,-107.3547 -0.28132,-10.8241 15.11,-487.7263 16.34,-506.2678 1.3459,-20.2932 2.7133,-23.6699 17.9768,-44.4093 30.5261,-41.4789 74.1146,-69.7704 132.8659,-86.2463 14.5137,-4.0708 29.2753,-8.4941 32.5681,-9.761 3.3567,-1.2945 12.7475,-2.9911 21.2352,-3.8394 16.288,-1.6306 31.1614,-6.7259 31.1614,-10.681 0,-1.3441 -11.9163,-11.9534 -26.5659,-23.6644 -28.5241,-22.7941 -55.202,-55.3822 -68.501,-83.6904 -15.5128,-32.9957 -18.8535,-102.4687 -7.8163,-162.7369 18.7257,-102.309 19.3331,-109.3048 19.1652,-221.5401 -0.1838,-120.7734 -0.1838,-120.7734 -32.9517,-258.6231 30.8951,-17.4683 -21.5296,2.9413 10.3233,-2.1985 33.1196,136.142 50.4252,135.0906 50.9687,258.3814 0.5035,113.7005 0.5035,113.7005 -17.343,214.4671 -19.5249,110.2798 -5.6345,177.3455 46.5863,224.9553 27.3013,24.8818 36.3804,31.4865 39.9369,29.0352 2.3097,-1.5975 -0.6314,-19.7645 -8.4957,-52.4573 -15.4968,-64.4161 -21.1233,-101.356 -18.4459,-121.0212 4.6594,-34.1582 50.2308,-89.6285 78.9786,-96.1285 40.4605,-7.0274 14.4997,-10.5047 4.5351,-1.8292 -26.6859,23.1796 -47.2852,69.9636 -53.2074,90.6369 -5.3148,18.5746 0.04,58.3127 17.7746,131.7573 l 12.8434,53.1898 14.9134,-26.5949 c 88.817,-158.3522 122.7598,-288.5451 107.3748,-411.8525 -1.8542,-14.8838 -4.1959,-34.4445 -5.2508,-43.919 -4.068,-36.4607 -20.452,-88.8132 -76.7089,-245.2045 30.8049,38.4871 10.7616,-9.7133 97.4326,206.1659 15.9683,67.0987 20.1642,148.3598 11.0212,213.4921 -12.3959,88.2734 -47.0899,181.0362 -109.3249,292.2964 -6.9612,12.4437 -11.6446,24.0776 -10.5098,26.1047 3.5725,6.4064 17.0713,4.0212 46.4506,-8.2076 42.838,-17.8309 55.4417,-24.8983 81.9597,-45.9573 60.4208,-47.9954 83.5981,-108.5721 94.0678,-245.937 3.061,-40.2615 4.5476,-80.3357 3.2848,-89.0556 -2.4536,-16.9771 2.9891,-87.8382 9.3669,-121.9963 5.4666,-29.2776 26.6139,-91.0221 35.0057,-102.2264 3.8762,-5.1779 11.205,-17.0818 16.0882,-26.1102 12.0602,-22.3423 22.1383,-33.9102 55.2339,-63.4356 309.2596,-137.0934 4.0554,-1.5021 -12.1641,45.3789 -5.107,6.0924 -13.219,18.4258 -18.2301,27.6966 -5.0031,9.2708 -11.8844,20.6238 -15.4569,25.4933 -5.5066,7.5245 -22.7937,56.1203 -30.5461,85.8882 -4.8352,18.5415 -12.0921,104.7381 -10.2619,121.9908 1.0629,10.0639 -0.7513,53.4321 -4.0361,96.3763 -11.0292,144.4378 -35.9008,207.6311 -102.3637,260.0884 -25.3432,19.9957 -76.1015,46.9652 -105.4887,56.0377 -15.7206,4.853 -11.6765,8.7364 14.8735,14.267 73.6318,15.3521 125.7328,45.6266 161.5777,93.8975 l 16.4799,22.2047 17.8784,467.2347 c 9.8304,256.921 18.7497,467.5101 19.8206,467.8461 1.095,0.3415 1.4306,5.9768 0.7673,12.8073 -2.4536,25.3775 4.7953,31.7288 36.2285,31.7784 85.3084,0.1212 157.5817,22.2873 216.1963,66.3056 52.5325,39.4517 87.6981,114.4331 75.9815,162.0098 -3.5485,14.3937 -3.3087,15.3081 7.3768,27.8123 43.9889,51.4823 85.2925,125.5493 98.6234,176.8883 13.0672,50.3145 19.8446,157.862 14.298,226.9108 -1.3986,17.4399 -4.5395,65.8759 -6.9692,107.5972 l -4.4276,75.8792 21.2432,19.2742 c 11.5566,10.4937 22.8496,21.4996 24.7757,24.1602 2.6454,3.6411 0.2238,15.1263 -9.5586,45.3788 -7.177,22.2047 -14.2581,41.826 -15.6727,43.4289 -3.4926,3.9771 -28.9317,3.0131 -113.5368,-4.3021 z m -555.7756,-328.2393 c 67.6137,-14.3826 88.3294,-22.3369 130.624,-50.1547 26.55,-17.4673 48.5844,-38.1022 57.9433,-54.2861 9.2629,-15.9911 7.7923,-146.3877 -6.194,-548.4792 -1.982,-57.0954 -4.5555,-114.8243 -5.7304,-128.4633 l -2.1179,-24.7606 -11.3329,2.4953 c -16.6557,3.6632 -133.1016,18.5967 -177.3543,22.7391 -49.1119,4.5995 -112.2181,4.5995 -164.6067,-0.01 -65.1362,-5.7233 -171.2051,-18.3212 -173.3686,-20.5962 -1.015,-1.0631 -6.2843,-2.5064 -11.5951,-3.1674 l -9.7344,-1.2229 0,16.1013 c 0,8.8632 -3.2624,117.6006 -7.25532,241.7948 -3.99289,124.1886 -7.56459,271.2264 -7.93862,326.9392 -0.76165,113.4581 -1.70153,108.5666 26.34544,137.1226 29.9586,30.5004 76.1286,58.803 114.8698,70.4314 9.5827,2.8754 33.9828,8.808 54.5147,13.2589 35.5971,7.7063 39.6491,8.0589 95.5783,8.2902 57.0002,0.2424 59.3579,0.044 97.3527,-8.0368 z m 590.6455,-14.1623 c 34.3343,-4.7978 38.778,-6.0152 41.9029,-11.4686 6.4817,-11.3255 -4.2119,-140.5379 -15.0652,-182.0167 -11.0372,-42.2004 -38.9299,-95.8861 -73.3762,-141.2649 -14.6336,-19.2797 -16.5997,-20.8993 -19.2611,-15.8589 -7.3528,13.9033 -22.2182,32.3512 -37.1556,46.1114 -13.5148,12.4437 -17.6707,14.7628 -25.3672,14.1238 -14.9533,-1.234 -13.8664,-10.7086 3.0131,-26.3251 21.1233,-19.533 31.3533,-35.3754 39.5373,-61.2378 13.4588,-42.4868 7.9841,-80.5174 -17.8865,-124.1886 -23.2413,-39.2479 -71.7457,-73.2903 -132.2785,-92.8289 -34.694,-11.2043 -121.5929,-18.9822 -137.0018,-12.2674 -5.9621,2.6 -5.9621,4.3297 0.3197,190.2464 1.9661,58.3127 5.091,107.8615 6.9372,110.2797 1.8062,2.3521 3.3647,7.5632 3.3647,11.2263 0,10.6369 13.2431,40.9886 24.6878,56.6051 13.4189,18.2992 43.1258,40.57 63.4579,47.5768 33.0556,11.3915 91.6862,13.5068 138.4164,4.9962 16.6317,-3.0297 18.6058,-2.903 25.1354,1.5919 13.6027,9.3754 -1.4226,16.9001 -41.7751,20.9267 l -15.2251,1.5204 0,29.0352 c 0,31.9602 5.2109,80.4292 11.0932,103.2069 3.7483,14.5257 3.9561,14.7186 26.9656,25.0084 23.1852,10.367 23.1852,10.367 57.168,10.367 21.2991,0 48.3206,-1.9996 72.3931,-5.3653 z m -1246.42322,-9.8822 c 23.00867,-10.2898 23.21486,-10.4826 26.96399,-25.0085 5.88224,-22.7775 11.08914,-71.2467 11.08914,-103.2069 l 0,-29.0352 -15.22269,-1.5203 c -40.35408,-4.0267 -55.37377,-11.5513 -41.77109,-20.9267 6.52481,-4.4949 8.49808,-4.6216 25.13458,-1.5919 46.72624,8.5161 105.35602,6.3953 138.41164,-4.9963 20.33608,-7.0067 50.04139,-29.2775 63.45945,-47.5767 11.44798,-15.6165 24.68862,-45.9682 24.68862,-56.6051 0,-3.6576 1.56087,-8.8686 3.3623,-11.2208 1.85099,-2.4237 4.96954,-51.9725 6.93641,-110.2852 6.27865,-185.9167 6.28185,-187.6464 0.31889,-190.2464 -15.40412,-6.7149 -102.30301,1.0632 -136.99702,12.2673 -60.53192,19.5441 -109.03721,53.5811 -132.28324,92.829 -25.86507,43.6767 -31.34131,81.7018 -17.88569,124.1886 8.18878,25.8624 18.41956,41.7102 39.53968,61.2378 16.88346,15.6165 17.9664,25.0967 3.01545,26.325 -7.69567,0.639 -11.85399,-1.6801 -25.36556,-14.1237 -14.94137,-13.7602 -29.80521,-32.2081 -37.15721,-46.1115 -2.66299,-5.0403 -4.63306,-3.4152 -19.26593,15.8589 -34.45026,45.3788 -62.34773,99.0645 -73.41529,141.265 -10.75187,40.9941 -21.65719,170.4709 -15.30981,181.7743 2.97788,5.2991 8.02974,6.7865 38.47112,11.3419 22.81206,3.4153 48.14405,5.3322 72.56972,5.492 l 37.52565,0.2424 z M 1093.6747,3045.4314 c 178.41,-19.7314 215.0701,-19.6158 378.7737,1.1457 36.82,4.6712 67.382,8.1691 67.9735,7.778 0.967,-0.6445 -14.9694,-432.1237 -17.8066,-482.1462 -0.8152,-14.3936 -3.3247,-25.9504 -6.6255,-30.4949 -2.8932,-3.9937 -9.5826,-13.4187 -14.7216,-20.7394 -20.42,-29.1069 -60.3249,-54.2641 -110.236,-69.4895 -25.511,-7.7835 -80.3613,-17.6933 -109.0292,-19.6983 -22.3062,-1.559 -81.7519,3.9771 -93.8121,8.7364 -3.3248,1.311 -15.2251,5.0954 -26.55,8.439 -49.9111,14.7462 -90.4075,40.1293 -110.9809,69.5721 -5.1166,7.3208 -11.7917,16.7457 -14.6888,20.7394 -7.0148,9.6729 -7.1362,11.711 -13.1959,224.4651 -2.8692,100.772 -6.2443,207.3336 -7.5118,237.162 -2.2195,52.2094 -2.0604,54.1208 4.4236,53.0632 3.7188,-0.6059 36.8176,-4.4234 73.9876,-8.5326" />
      <path
         inkscape:connector-curvature="0"
         id="path3017"
         d="m 1370.5085,3347.2034 -102.9661,0"
         style="fill:#ff0000;fill-opacity:1;stroke:none" />
      <path
         sodipodi:nodetypes="ccccccccccccccc"
         inkscape:connector-curvature="0"
         id="path3015"
         d="m 1363.1669,3256.7345 c -78.9703,-34.0347 -162.8633,-55.6726 -248.1078,-63.8355 -82.5752,-7.3395 -162.18531,-129.2952 -236.81497,-112.6397 -78.09625,17.6329 -133.19844,140.9108 -197.82136,174.1191 l -9.70784,33.9771 c -70.76068,36.2899 -124.9436,44.5212 -183.67418,89.8596 -64.85256,49.9872 -124.25697,103.6157 -180.01635,159.1587 l -6e-5,1e-4 c 0,0 25.15815,-28.9753 90.94811,133.1973 l 3e-5,0 c 51.71083,-52.6737 105.5877,-102.9952 163.43369,-149.2377 52.42094,-41.8654 107.77218,-80.5325 167.76368,-113.2124 54.67764,-29.7767 102.08487,-126.3985 165.02884,-142.6893 59.8409,-15.4685 118.70061,80.9436 184.27171,84.5479 42.7576,2.4377 85.7996,9.4678 128.227,20.8189"
         style="fill:#e759a6;fill-opacity:1;stroke:none" />
      <path
         sodipodi:nodetypes="ccccccccc"
         inkscape:connector-curvature="0"
         id="rect3010"
         d="m 1450.6275,3225.5876 c 117.4681,-1.4259 235.6368,5.9242 349.4814,26.1648 92.4693,16.4114 54.0194,137.9998 136.2377,173.6745 70.8061,30.726 135.9221,68.974 194.0783,112.8044 31.8797,-147.0504 4.3363,-39.509 57.8156,-154.4978 -69.4609,-48.0553 -146.2646,-89.2656 -229.1412,-121.6912 -10e-5,0 -10e-5,0 -10e-5,0 -96.0264,-37.389 -69.6553,-159.3189 -172.4742,-174.6992 -123.5489,-18.5792 -248.8093,-24.3574 -371.0754,-21.188"
         style="fill:#e752a3;fill-opacity:1;stroke:none" />
    </g>
  </g>
</svg>
