<?xml version="1.0" encoding="UTF-8" standalone="no"?>
<!-- Created with Inkscape (http://www.inkscape.org/) -->

<svg
   xmlns:dc="http://purl.org/dc/elements/1.1/"
   xmlns:cc="http://creativecommons.org/ns#"
   xmlns:rdf="http://www.w3.org/1999/02/22-rdf-syntax-ns#"
   xmlns:svg="http://www.w3.org/2000/svg"
   xmlns="http://www.w3.org/2000/svg"
   xmlns:sodipodi="http://sodipodi.sourceforge.net/DTD/sodipodi-0.dtd"
   xmlns:inkscape="http://www.inkscape.org/namespaces/inkscape"
   width="3000"
   height="600"
   id="svg2"
   version="1.1"
   inkscape:version="0.48.3.1 r9886"
   sodipodi:docname="mtools_logo.svg"
   inkscape:export-filename="/home/uqmimelf/working/tmp/M_logos/mtools_logo.png"
   inkscape:export-xdpi="300"
   inkscape:export-ydpi="300">
  <defs
     id="defs4" />
  <sodipodi:namedview
     id="base"
     pagecolor="#ffffff"
     bordercolor="#666666"
     borderopacity="1.0"
     inkscape:pageopacity="0.0"
     inkscape:pageshadow="2"
     inkscape:zoom="0.35"
     inkscape:cx="1269.2619"
     inkscape:cy="371.7396"
     inkscape:document-units="px"
     inkscape:current-layer="layer1"
     showgrid="false"
     inkscape:window-width="1366"
     inkscape:window-height="694"
     inkscape:window-x="-7"
     inkscape:window-y="23"
     inkscape:window-maximized="1"
     showguides="true"
     inkscape:guide-bbox="true" />
  <metadata
     id="metadata7">
    <rdf:RDF>
      <cc:Work
         rdf:about="">
        <dc:format>image/svg+xml</dc:format>
        <dc:type
           rdf:resource="http://purl.org/dc/dcmitype/StillImage" />
        <dc:title></dc:title>
      </cc:Work>
    </rdf:RDF>
  </metadata>
  <g
     inkscape:label="Layer 1"
     inkscape:groupmode="layer"
     id="layer1"
     transform="translate(0,-452.36218)">
    <path
       sodipodi:type="arc"
       style="fill:none;stroke:#000000;stroke-width:29.57933807;stroke-miterlimit:4;stroke-opacity:1;stroke-dasharray:none"
       id="path2987"
       sodipodi:cx="434.3656"
       sodipodi:cy="432.31467"
       sodipodi:rx="373.75644"
       sodipodi:ry="373.75644"
       d="m 808.12204,432.31467 c 0,206.41998 -167.33646,373.75644 -373.75644,373.75644 -206.41998,0 -373.756439,-167.33646 -373.756439,-373.75644 0,-206.41998 167.336459,-373.756442 373.756439,-373.756442 206.41998,0 373.75644,167.336462 373.75644,373.756442 z"
       transform="matrix(0.74207836,0,0,0.74207836,-8.942354,431.55082)" />
    <path
       style="fill:none;stroke:#000000;stroke-width:21.95018578;stroke-miterlimit:4;stroke-opacity:1"
       d="m 2440.5411,475.00561 c 153.1798,0 277.3566,124.17677 277.3566,277.35657 0,153.1798 -124.1768,277.35652 -277.3566,277.35652"
       id="path2987-1"
       inkscape:connector-curvature="0"
       sodipodi:nodetypes="csc" />
    <path
       style="fill:none;stroke:#000000;stroke-width:22;stroke-miterlimit:4;stroke-opacity:1;stroke-dasharray:none;stroke-dashoffset:0"
       d="m 2441.7946,1029.6938 -2119.73358,0"
       id="path3794"
       inkscape:connector-curvature="0" />
    <path
       style="fill:none;stroke:#000000;stroke-width:22;stroke-miterlimit:4;stroke-opacity:1;stroke-dasharray:none;stroke-dashoffset:0"
       d="m 322.06102,475.03052 2119.73358,0"
       id="rect3789"
       inkscape:connector-curvature="0" />
    <g
       transform="matrix(2.0025222,0,0,2.0025222,357.91516,1064.9507)"
       style="font-size:40px;font-style:normal;font-weight:normal;line-height:125%;letter-spacing:0px;word-spacing:0px;fill:#000000;fill-opacity:1;stroke:none;font-family:arial;-inkscape-font-specification:arial"
       id="flowRoot3007">
      <path
         d="m 140.875,-250.02239 57.42187,0 39.84375,93.63281 40.07813,-93.63281 57.30469,0 0,174.960939 -42.65625,0 0,-127.968749 -40.3125,94.33594 -28.59375,0 -40.3125,-94.33594 0,127.968749 -42.77344,0 0,-174.960939"
         style="font-size:240px;font-weight:bold;font-family:Vemana2000;-inkscape-font-specification:Vemana2000"
         id="path3016"
         inkscape:connector-curvature="0" />
      <path
         d="m 471.57812,-250.02239 161.25,0 0,34.10156 -58.00781,0 0,140.859379 -45.11719,0 0,-140.859379 -58.125,0 0,-34.10156"
         style="font-size:240px;font-weight:bold;font-family:Vemana2000;-inkscape-font-specification:Vemana2000"
         id="path3020"
         inkscape:connector-curvature="0" />
      <path
         d="m 684.74219,-179.47551 c -9.29695,1e-4 -16.40632,3.35947 -21.32813,10.07812 -4.8438,6.64071 -7.26568,16.25008 -7.26562,28.82813 -6e-5,12.57817 2.42182,22.2266 7.26562,28.94531 4.92181,6.64065 12.03118,9.96096 21.32813,9.96094 9.14053,2e-5 16.13271,-3.32029 20.97656,-9.96094 4.84364,-6.71871 7.26551,-16.36714 7.26562,-28.94531 -1.1e-4,-12.57805 -2.42198,-22.18742 -7.26562,-28.82813 -4.84385,-6.71865 -11.83603,-10.07802 -20.97656,-10.07812 m 0,-30 c 22.57802,1.3e-4 40.19519,6.09387 52.85156,18.28125 12.73423,12.1876 19.10141,29.06258 19.10156,50.625 -1.5e-4,21.56254 -6.36733,38.43752 -19.10156,50.624996 -12.65637,12.187503 -30.27354,18.281247 -52.85156,18.28125 -22.65631,-3e-6 -40.39067,-6.093747 -53.20313,-18.28125 -12.73439,-12.187476 -19.10157,-29.062456 -19.10156,-50.624996 -10e-6,-21.56242 6.36717,-38.4374 19.10156,-50.625 12.81246,-12.18738 30.54682,-18.28112 53.20313,-18.28125"
         style="font-size:240px;font-weight:bold;font-family:Vemana2000;-inkscape-font-specification:Vemana2000"
         id="path3022"
         inkscape:connector-curvature="0" />
      <path
         d="m 849.74219,-179.47551 c -9.29695,1e-4 -16.40632,3.35947 -21.32813,10.07812 -4.8438,6.64071 -7.26568,16.25008 -7.26562,28.82813 -6e-5,12.57817 2.42182,22.2266 7.26562,28.94531 4.92181,6.64065 12.03118,9.96096 21.32813,9.96094 9.14053,2e-5 16.13271,-3.32029 20.97656,-9.96094 4.84364,-6.71871 7.26551,-16.36714 7.26562,-28.94531 -1.1e-4,-12.57805 -2.42198,-22.18742 -7.26562,-28.82813 -4.84385,-6.71865 -11.83603,-10.07802 -20.97656,-10.07812 m 0,-30 c 22.57802,1.3e-4 40.19519,6.09387 52.85156,18.28125 12.73423,12.1876 19.10141,29.06258 19.10156,50.625 -1.5e-4,21.56254 -6.36733,38.43752 -19.10156,50.624996 -12.65637,12.187503 -30.27354,18.281247 -52.85156,18.28125 -22.65631,-3e-6 -40.39067,-6.093747 -53.20313,-18.28125 -12.73439,-12.187476 -19.10157,-29.062456 -19.10156,-50.624996 -10e-6,-21.56242 6.36717,-38.4374 19.10156,-50.625 12.81246,-12.18738 30.54682,-18.28112 53.20313,-18.28125"
         style="font-size:240px;font-weight:bold;font-family:Vemana2000;-inkscape-font-specification:Vemana2000"
         id="path3024"
         inkscape:connector-curvature="0" />
      <path
         d="m 942.28125,-257.4052 41.95315,0 0,182.343749 -41.95315,0 0,-182.343749"
         style="font-size:240px;font-weight:bold;font-family:Vemana2000;-inkscape-font-specification:Vemana2000"
         id="path3026"
         inkscape:connector-curvature="0" />
      <path
         d="m 1115.3203,-202.20989 0,31.875 c -8.9845,-3.7499 -17.6563,-6.5624 -26.0156,-8.4375 -8.3595,-1.87489 -16.2501,-2.81239 -23.6719,-2.8125 -7.9688,1.1e-4 -13.9063,1.01573 -17.8125,3.04688 -3.8282,1.95322 -5.7422,5.00009 -5.7422,9.14062 0,3.35947 1.4453,5.93759 4.336,7.73438 2.9687,1.79696 8.2421,3.12508 15.8203,3.98437 l 7.3828,1.05469 c 21.4843,2.73445 35.9374,7.22664 43.3594,13.47656 7.4217,6.25006 11.1326,16.05474 11.1328,29.41406 -2e-4,13.984403 -5.1564,24.492205 -15.4688,31.523441 -10.3126,7.03125 -25.7032,10.546872 -46.1718,10.546875 -8.672,-3e-6 -17.6564,-0.703128 -26.9532,-2.109375 -9.2188,-1.328125 -18.7109,-3.359373 -28.4765,-6.09375 l 0,-31.875001 c 8.3593,4.06253 16.914,7.10941 25.664,9.14063 8.8281,2.03127 17.7734,3.046896 26.836,3.046871 8.203,2.5e-5 14.3749,-1.132791 18.5156,-3.398441 4.1405,-2.26559 6.2108,-5.62496 6.2109,-10.07812 -10e-5,-3.74996 -1.4454,-6.52339 -4.3359,-8.32031 -2.8126,-1.87496 -8.4767,-3.32027 -16.9922,-4.33594 l -7.3828,-0.9375 c -18.6719,-2.3437 -31.7579,-6.67963 -39.2578,-13.00781 -7.5,-6.32806 -11.25,-15.93742 -11.25,-28.82813 0,-13.90614 4.7656,-24.21863 14.2969,-30.9375 9.5312,-6.71862 24.1405,-10.07799 43.8281,-10.07812 7.7343,1.3e-4 15.8593,0.58607 24.375,1.75781 8.5155,1.17201 17.7733,3.00794 27.7734,5.50781"
         style="font-size:240px;font-weight:bold;font-family:Vemana2000;-inkscape-font-specification:Vemana2000"
         id="path3028"
         inkscape:connector-curvature="0" />
      <rect
         style="fill:#000000;fill-opacity:1;stroke:none"
         id="rect3030"
         width="108.08632"
         height="18.182745"
         x="366.24121"
         y="-163.10933" />
    </g>
    <path
       style="fill:#000000"
       d="m 357.54664,978.60821 c -0.0984,-0.43324 -1.63926,-10.79517 -3.42367,-23.02649 -1.78442,-12.23113 -3.27004,-22.27755 -3.30139,-22.32508 -0.0315,-0.0481 -1.8961,0.1745 -4.14387,0.49483 -3.26128,0.46394 -4.08555,0.6938 -4.08006,1.13728 0.004,0.30569 0.54354,6.22779 1.19953,13.16041 0.65602,6.93262 1.15799,12.63951 1.11552,12.68182 -0.0425,0.0421 -2.51282,0.35583 -5.48968,0.69621 -4.34445,0.49684 -8.3841,0.6204 -20.47169,0.62622 -15.77428,0 -19.98844,-0.25494 -31.16906,-1.94262 -8.10984,-1.22413 -8.93045,-1.40606 -8.93045,-1.97911 0,-0.29145 1.1923,-6.27994 2.64949,-13.30763 1.45725,-7.02771 2.59983,-12.80619 2.53906,-12.84129 -1.48683,-0.85728 -9.7502,-2.79628 -10.12474,-2.37567 -0.15986,0.17852 -7.2277,23.63827 -12.74973,42.31763 l -0.53478,1.80901 -1.30854,-0.33897 c -4.80507,-1.2446 -11.4839,-3.27245 -11.58217,-3.51676 -0.0646,-0.16046 -0.27923,-0.19256 -0.47691,-0.0702 -0.19778,0.12235 -0.46005,0.0681 -0.58297,-0.12035 -0.12296,-0.18854 -2.03588,-0.93911 -4.25098,-1.66802 -2.2151,-0.7289 -4.34266,-1.49532 -4.72789,-1.70331 -0.38524,-0.20801 -0.77924,-0.39515 -0.87553,-0.4156 -0.80767,-0.17251 -2.0983,-1.06227 -1.97713,-1.36314 2.36001,-5.85953 17.14808,-42.11503 17.24033,-42.26787 0.072,-0.12035 -0.75439,-0.55581 -1.83667,-0.97 -4.38205,-1.67685 -11.67546,-5.04377 -11.67546,-5.38957 0,-0.20319 -0.0977,-0.27179 -0.21678,-0.15244 -0.11935,0.11834 -0.44156,0 -0.71618,-0.28242 -0.27468,-0.27479 -1.12269,-0.66733 -1.88451,-0.87251 -0.7618,-0.205 -1.3851,-0.49904 -1.3851,-0.65329 0,-0.28462 -1.5381,-1.09336 -2.07904,-1.09336 -0.16228,0 -3.25186,5.47642 -6.86574,12.16974 -3.61387,6.69353 -6.59943,12.20947 -6.63456,12.25781 -0.16507,0.22665 -11.73746,-6.6478 -16.60609,-9.86469 -6.54464,-4.32449 -16.50188,-11.73449 -16.47535,-12.26061 0.01,-0.207 3.86087,-5.2616 8.55651,-11.23285 l 8.53752,-10.85654 -1.63977,-1.49212 c -0.90186,-0.82057 -2.06852,-1.81284 -2.59253,-2.20516 l -0.95278,-0.71346 -7.27725,9.16928 c -22.2979,28.09514 -21.08078,26.62629 -21.76161,26.26184 -0.35137,-0.18855 -2.97832,-2.59549 -5.83772,-5.34985 -5.77047,-5.55865 -5.50893,-5.2991 -8.29839,-8.23037 l -2.00416,-2.10588 15.23997,-17.22435 15.24,-17.22434 -1.64373,-1.92396 c -0.90405,-1.05825 -1.76614,-1.87943 -1.91578,-1.82487 -0.14963,0.0542 -4.00176,4.1179 -8.56022,9.02968 -4.55844,4.91178 -8.87739,9.53213 -9.59762,10.26725 l -1.30944,1.33686 -3.59897,-4.31366 c -7.02129,-8.4155 -13.56113,-17.58077 -19.0857,-26.74764 -1.47793,-2.45229 -2.56028,-4.56839 -2.40519,-4.70219 0.15505,-0.13438 5.61328,-3.37795 12.12936,-7.20922 11.66079,-6.8562 11.84422,-6.98156 11.64929,-7.95637 -0.23863,-1.19305 -1.10329,-2.13457 -1.73705,-1.89147 -0.25353,0.0963 -9.06746,4.99823 -19.58657,10.89065 -10.51906,5.89263 -19.27428,10.71395 -19.45604,10.71395 -0.18174,0 -1.40385,-2.16706 -2.71571,-4.81551 -1.31189,-2.64844 -2.52359,-4.91198 -2.6927,-5.02972 -0.16908,-0.11835 -0.32011,-0.35423 -0.33554,-0.52533 -0.016,-0.17048 -0.39599,-1.1429 -0.84562,-2.15963 -0.44967,-1.01673 -0.81755,-1.96828 -0.81755,-2.11471 0,-0.14642 7.28883,-3.6387 16.1974,-7.76081 8.90857,-4.1221 18.13251,-8.40467 20.4976,-9.51708 l 4.30022,-2.02225 -0.54659,-1.30818 c -0.30066,-0.71947 -0.59176,-1.3535 -0.64694,-1.40866 -0.0552,-0.0542 -5.92062,2.47896 -13.03428,5.63127 l -12.93396,5.73155 -0.9235,-1.9719 c -1.63266,-3.48627 -5.46064,-14.05499 -7.31026,-20.18309 -2.15871,-7.15226 -4.67226,-17.20991 -4.44742,-17.7958 0.089,-0.23227 1.87238,-0.71025 3.97,-1.06387 5.91005,-0.99668 23.65117,-4.36882 23.8075,-4.52506 0.077,-0.0763 -0.16808,-1.61086 -0.54439,-3.40866 -0.37635,-1.79779 -1.04607,-5.9213 -1.48832,-9.16346 l -0.80406,-5.89503 -1.57698,0.20158 c -5.19659,0.66433 -43.61042,5.30012 -43.64695,5.26763 -0.35493,-0.31732 -0.94996,-12.63891 -1.08429,-22.45325 -0.14261,-10.41227 0.23586,-23.45895 0.69107,-23.82762 0.0479,-0.0381 10.16584,1.00651 22.4841,2.32291 12.31827,1.3162 22.46468,2.32552 22.5476,2.24248 0.0829,-0.0822 0.13058,-1.02617 0.1059,-2.09606 -0.0245,-1.06989 0.10092,-2.218 0.27887,-2.55096 0.17812,-0.33317 0.50003,-2.20818 0.71549,-4.16644 0.21545,-1.95846 0.68079,-5.26801 1.03405,-7.35464 0.35328,-2.08662 0.54283,-3.89204 0.42124,-4.01199 -0.12155,-0.12034 -6.35849,-1.34588 -13.85973,-2.72366 -7.50125,-1.37798 -13.67494,-2.54174 -13.71933,-2.58607 -0.0443,-0.0441 0.36474,-2.04952 0.90913,-4.45567 2.9823,-13.18187 6.7942,-25.05034 11.97848,-37.29531 2.25486,-5.32578 9.01161,-19.09776 9.3553,-19.06847 0.11653,0 5.64913,2.89958 12.29444,6.42155 6.64532,3.52197 12.26517,6.33911 12.48857,6.26048 0.22336,-0.0782 0.49471,-0.49604 0.60297,-0.92728 0.1083,-0.43145 0.59507,-1.24741 1.08183,-1.81344 0.83558,-0.9716 1.0244,-1.37718 0.9273,-1.99215 -0.0226,-0.14442 0.11614,-0.26256 0.30876,-0.26256 0.19256,0 0.35021,-0.23027 0.35021,-0.51168 0,-0.28142 0.29483,-0.79369 0.65517,-1.13829 0.36038,-0.3446 0.86481,-1.21751 1.121,-1.9398 0.25621,-0.72229 0.58769,-1.31319 0.73668,-1.31319 0.14904,0 0.50228,-0.4475 0.78512,-0.99448 l 0.51424,-0.99447 -9.52326,-6.07895 c -5.23782,-3.34345 -10.5086,-6.73204 -11.71291,-7.53015 l -2.18965,-1.4512 2.66397,-3.82042 c 1.4652,-2.10128 3.04971,-4.33291 3.52114,-4.95913 l 0.85711,-1.13868 2.34575,1.86017 c 1.2902,1.02295 6.22689,4.86725 10.97043,8.54287 l 8.62465,6.6829 1.21549,-1.62569 c 0.66853,-0.89418 1.31252,-1.89929 1.43111,-2.23365 0.1715,-0.48341 -3.46561,-3.37937 -17.7694,-14.14847 l -17.985,-13.54051 1.25017,-1.78635 c 0.68757,-0.98244 1.50826,-2.02285 1.82381,-2.31168 0.31551,-0.28883 1.41976,-1.6285 2.45391,-2.9768 1.03415,-1.34829 2.3833,-3.00307 2.99818,-3.67721 0.61487,-0.67416 1.57062,-1.73642 2.12394,-2.36062 l 1.00595,-1.13488 16.59347,15.40609 c 9.12639,8.47327 16.6824,15.4061 16.79111,15.4061 0.33499,0 2.16215,-1.86258 2.16215,-2.20397 0,-0.17651 0.394,-0.63183 0.87555,-1.01052 0.48153,-0.37889 0.87552,-0.8306 0.87552,-1.0037 0,-0.1725 -4.1763,-4.71882 -9.28067,-10.10137 -5.10437,-5.38254 -9.28068,-9.9377 -9.28068,-10.12244 0,-0.44368 8.62339,-8.4823 14.07014,-13.11608 14.12269,-12.0149 31.50491,-23.08527 48.26796,-30.74118 4.93746,-2.2549 10.57382,-4.60049 10.70532,-4.45507 0.0421,0.0461 2.31946,5.52195 5.06078,12.16715 2.74129,6.64539 5.02356,12.12842 5.07174,12.18479 0.15425,0.18052 3.14328,-1.09196 3.37533,-1.43635 0.12295,-0.18253 0.39827,-0.22364 0.61183,-0.0923 0.28283,0.17449 0.28612,-0.0261 0.012,-0.74316 -0.96683,-2.52729 -15.14143,-41.32634 -15.28264,-41.83221 -0.12134,-0.43465 0.29433,-0.72288 1.70906,-1.18483 1.02818,-0.33576 2.18463,-0.78085 2.56986,-0.98905 0.38523,-0.20839 0.77923,-0.39755 0.87552,-0.42041 0.0963,-0.024 0.56912,-0.2056 1.05066,-0.40577 0.48154,-0.20058 3.23948,-1.04643 6.12874,-1.88043 2.88927,-0.83421 5.33203,-1.61827 5.42832,-1.74244 0.33874,-0.43625 5.30585,-1.47025 5.59319,-1.16415 0.15846,0.16848 2.5691,10.15652 5.35702,22.19509 l 5.06894,21.88842 1.87272,-0.0542 c 1.03002,-0.0301 1.93032,-0.22665 2.00073,-0.43786 0.0704,-0.21102 0.58761,-0.38372 1.1494,-0.38372 0.5618,0 1.02147,-0.15244 1.02147,-0.33817 0,-0.18654 0.792,-0.44328 1.75996,-0.57165 1.39808,-0.18453 1.7255,-0.35002 1.59224,-0.80011 -0.19196,-0.64867 -4.29156,-22.87727 -4.46422,-24.20591 -0.11293,-0.86971 -0.0756,-0.88195 5.48968,-1.81303 11.75039,-1.96588 21.30853,-2.73992 33.83555,-2.73992 l 9.39396,0 -0.17089,2.71424 c -0.26225,4.16483 -0.85783,18.85184 -0.85783,21.15409 l 0,2.04752 2.71417,0 c 1.49278,0.002 4.44772,0.15244 6.56649,0.33316 2.1188,0.18252 5.47971,0.4156 7.46863,0.5199 1.98899,0.10427 3.86312,0.32775 4.16479,0.49643 0.30164,0.16849 0.85163,0.22767 1.22215,0.13038 0.37055,-0.0963 1.01797,0 1.43868,0.19456 0.77356,0.37508 6.24158,1.37899 8.8199,1.61949 2.22652,0.20759 4.01908,0.60815 4.22712,0.94472 0.10547,0.17049 0.47359,0.3105 0.81785,0.3105 0.34426,0 1.08357,0.22203 1.64286,0.49342 0.55929,0.27139 1.6978,0.58348 2.53001,0.69361 1.8105,0.23948 4.30394,0.88354 4.79071,1.23737 0.19256,0.1404 1.37459,0.54698 2.62661,0.90461 1.25201,0.35744 2.31989,0.67816 2.37304,0.71266 0.0531,0.0341 -0.45906,1.37998 -1.13818,2.99024 -0.67918,1.61044 -1.23486,3.11238 -1.23486,3.33763 0,0.22526 -0.29713,0.77645 -0.66029,1.22494 -0.50217,0.62019 -0.77472,0.72429 -1.13819,0.43465 -0.63702,-0.50746 -2.38791,-1.00069 -5.46845,-1.54045 -1.3965,-0.2445 -2.53906,-0.57204 -2.53906,-0.7279 0,-0.15645 -0.23507,-0.19255 -0.52238,-0.0822 -0.2896,0.11031 -0.61175,-0.0321 -0.72301,-0.32253 -0.11513,-0.30007 -0.47281,-0.4519 -0.83899,-0.35603 -0.35105,0.0923 -0.74416,0 -0.87356,-0.21382 -0.12937,-0.20961 -0.6458,-0.3809 -1.14751,-0.3809 -1.31285,0 -7.25704,-1.16015 -7.38084,-1.44036 -0.0573,-0.13037 -0.41283,-0.15645 -0.78988,-0.0561 -0.37699,0.0983 -0.88163,0.0261 -1.12137,-0.16247 -0.58086,-0.45532 -4.81696,-1.05224 -9.45393,-1.33224 -2.07064,-0.12436 -3.7647,-0.33036 -3.7646,-0.45632 1.4e-4,-0.12637 -0.79151,-0.17451 -1.75919,-0.10633 -0.96768,0.0662 -2.03155,0.02 -2.36415,-0.12436 -0.3326,-0.13439 -1.88982,-0.21984 -3.46045,-0.18854 -1.69488,0.0341 -2.94897,-0.0942 -3.08505,-0.31411 -0.12617,-0.20419 -0.68982,-0.37107 -1.2526,-0.37107 -0.78088,0 -1.0608,0.18653 -1.18154,0.78787 -0.0871,0.43345 -0.40828,7.48583 -0.71394,15.67206 -0.30562,8.18624 -0.64743,15.94786 -0.75953,17.24822 l -0.20383,2.36382 -6.70609,10e-4 c -7.26794,10e-4 -15.34997,0.65308 -21.82589,1.76028 -2.25313,0.38511 -4.20312,0.57988 -4.33326,0.43265 -0.13018,-0.14642 -1.62567,-7.85809 -3.32335,-17.13488 l -3.0867,-16.86712 -0.98941,-0.14441 c -0.54419,-0.0803 -0.98947,-0.0201 -0.98947,0.14441 0,0.15846 -0.63038,0.28964 -1.40086,0.28964 -0.77047,0 -1.40085,0.15846 -1.40085,0.35021 0,0.19256 -0.30588,0.35021 -0.67976,0.35021 -0.37386,0 -0.7661,0.1404 -0.87166,0.31049 -0.10546,0.1705 -0.74525,0.41441 -1.42152,0.54117 -0.6763,0.12637 -1.22963,0.27921 -1.22963,0.33857 0,0.0601 1.11141,4.88391 2.46979,10.72137 2.51494,10.80742 2.55278,11.17909 1.14025,11.19714 -0.53043,0 -7.99164,2.26414 -9.38857,2.8404 -0.57786,0.23829 -1.12945,0.45973 -1.22575,0.49202 -0.0963,0.0321 -0.61876,0.2425 -1.161,0.46716 -0.54224,0.22464 -1.11205,0.40837 -1.26634,0.40837 -0.15425,0 -1.96812,-4.60971 -4.03088,-10.24378 -2.06277,-5.63408 -3.88294,-10.38018 -4.04484,-10.54687 -0.16469,-0.16848 -0.79385,-0.0542 -1.42841,0.26276 -0.62375,0.31111 -1.34623,0.56563 -1.60556,0.56563 -0.25935,0 -0.47154,0.26357 -0.47154,0.58551 0,0.32192 2.92867,7.66332 6.50818,16.3141 3.57949,8.6508 6.45562,15.77778 6.39139,15.83755 -0.0641,0.0601 -1.45632,0.63242 -3.09357,1.27227 -4.54116,1.77453 -15.0473,7.17853 -20.13731,10.35791 -8.83043,5.51593 -16.77462,11.74192 -24.06948,18.86388 -2.25903,2.20538 -4.17895,4.00999 -4.26659,4.00999 -0.0876,0 -5.38342,-5.51353 -11.76841,-12.25219 l -11.60908,-12.25238 -1.24098,1.30818 c -0.68254,0.71927 -1.48252,1.67282 -1.77771,2.11871 -0.49174,0.74255 -0.48073,0.8629 0.13137,1.43575 0.3674,0.34379 4.01692,3.73057 8.11005,7.52613 4.09311,3.79576 7.44205,7.06882 7.44205,7.27341 0,0.35162 -0.83064,1.41228 -3.19347,4.07718 -0.56619,0.63864 -1.43975,1.78114 -1.94135,2.53913 -0.50153,0.75779 -0.97285,1.37798 -1.0473,1.37798 -0.0744,0 -4.24355,-3.08571 -9.26453,-6.8572 -5.02102,-3.77149 -9.16897,-6.80505 -9.2176,-6.74168 -2.20421,2.87771 -3.05076,4.22902 -2.79411,4.46028 0.1743,0.15646 5.51745,4.27435 11.87383,9.15024 6.35637,4.87567 12.21878,9.39312 13.0276,10.03878 l 1.47052,1.174 -1.58517,2.26754 c -0.87182,1.24721 -1.73757,2.26755 -1.92393,2.26755 -0.18635,0 -6.50247,-3.948 -14.03584,-8.77333 -7.5334,-4.82555 -13.8342,-8.80484 -14.00178,-8.84294 -0.16768,-0.0381 -0.57655,0.39855 -0.90873,0.97061 -0.33222,0.57184 -0.8196,1.27167 -1.08315,1.55468 -0.26349,0.28322 -0.6335,0.95777 -0.82222,1.49912 -0.18876,0.54137 -0.48529,0.98425 -0.65907,0.98425 -0.1737,0 -0.31598,0.22506 -0.31598,0.50025 0,0.2752 -0.20364,0.70865 -0.45254,0.96318 -0.2489,0.25454 -0.67138,0.99748 -0.93885,1.65116 -0.26745,0.65369 -0.85796,1.5896 -1.31226,2.07982 -0.61718,0.66592 -0.7118,0.95134 -0.37443,1.12926 0.24833,0.13037 6.83414,3.58796 14.63516,7.68239 7.80101,4.09422 14.3108,7.55962 14.46618,7.70063 0.15545,0.14041 -1.04752,2.91883 -2.67314,6.17263 -4.76981,9.54737 -8.42924,19.47144 -10.91891,29.61072 -0.66949,2.72687 -1.28949,5.02993 -1.37768,5.11818 -0.0883,0.0883 -7.37861,-1.17741 -16.20093,-2.81252 -8.82228,-1.63513 -16.09266,-2.92746 -16.15632,-2.87189 -0.0638,0.0561 -0.45936,2.20256 -0.87932,4.77138 -0.41991,2.56861 -0.8935,4.87407 -1.05236,5.12319 -0.15886,0.24911 -0.37777,2.57364 -0.48645,5.16572 -0.18714,4.46409 -0.16246,4.71321 0.46772,4.71983 1.03737,0.02 21.9177,2.39171 22.03465,2.51226 0.0571,0.0582 -0.0549,2.15602 -0.24941,4.66005 -0.38247,4.92603 -0.18714,13.84018 0.43634,19.90409 0.21454,2.08682 0.31152,3.87278 0.21552,3.96866 -0.13379,0.13438 -21.52216,2.8725 -22.72949,2.9106 -0.30931,0 0.089,4.31066 0.42246,4.56077 0.22421,0.16849 1.32112,6.69554 1.73622,10.33145 0.38681,3.38798 -1.06219,3.40242 16.50418,-0.16448 8.56089,-1.73822 15.74522,-3.16093 15.96525,-3.16154 0.22004,-8e-4 0.67602,1.14151 1.0133,2.53794 1.5951,6.60387 3.8322,13.49217 6.7487,20.78002 l 0.71272,1.78093 -14.59359,6.42295 c -8.02648,3.53261 -14.73409,6.5437 -14.90585,6.69133 -0.17771,0.15244 -0.0599,0.79991 0.27311,1.50194 0.5062,1.06668 0.69051,1.19184 1.36289,0.92487 0.42764,-0.17049 5.03264,-2.27999 10.23332,-4.68894 l 9.45579,-4.38006 2.33031,4.78904 c 1.73928,3.57432 2.22781,4.88571 1.92619,5.16973 -0.22229,0.2094 -2.7681,1.69088 -5.65736,3.29231 -2.88927,1.60122 -7.18097,3.99854 -9.53711,5.32719 l -4.28391,2.41557 0.92035,1.39081 c 0.84741,1.2805 0.97885,1.35332 1.65733,0.91986 2.64348,-1.68888 27.14987,-16.00281 27.39791,-16.00281 0.16869,0 0.70042,0.74314 1.18161,1.65137 1.29929,2.45207 6.59748,10.44055 9.4729,14.28305 l 2.51923,3.36632 -0.70098,0.76862 c -0.38559,0.42262 -5.44789,5.87296 -11.24957,12.11178 -5.80171,6.23902 -10.54759,11.43963 -10.54632,11.55718 0.004,0.34038 2.82571,3.54063 3.12238,3.54063 0.14762,0 3.6156,-3.78795 7.70666,-8.41752 l 7.43826,-8.41751 1.10896,1.33666 c 1.34858,1.62549 6.19963,6.76273 9.42388,9.97983 1.30167,1.29874 2.36664,2.48617 2.36664,2.63881 0,0.15244 -2.93326,3.97529 -6.51837,8.49514 -3.58506,4.51985 -6.60752,8.44438 -6.71653,8.72098 -0.26277,0.66673 4.10926,4.62115 4.72701,4.27536 0.24406,-0.1364 4.86941,-5.9167 10.27854,-12.8447 5.40916,-6.92801 9.9598,-12.64152 10.1126,-12.69688 0.15285,-0.0561 1.12692,0.58851 2.16467,1.43114 4.86381,3.94881 13.04398,9.43505 18.61478,12.48426 l 2.71938,1.48849 -1.82716,3.38016 c -1.00498,1.85897 -4.55325,8.42093 -7.88507,14.58212 -3.33184,6.1612 -6.05787,11.30104 -6.05787,11.42198 0,0.12035 0.70919,0.49062 1.57597,0.82158 0.86677,0.33116 1.57597,0.74655 1.57597,0.92327 0,0.1765 0.23638,0.32112 0.52531,0.32112 0.28892,0 0.52532,0.15846 0.52532,0.35022 0,0.19256 0.11814,0.32453 0.26266,0.29305 0.41788,-0.0923 3.48889,1.36192 3.74127,1.77031 0.12576,0.20339 1.03408,0.60916 2.01839,0.9014 0.98432,0.29245 2.28582,0.82438 2.89225,1.18202 1.09897,0.64846 5.78862,2.28739 5.97236,2.08743 0.0531,-0.0582 1.87507,-4.51806 4.04855,-9.91144 2.17352,-5.39317 3.9924,-9.86107 4.04196,-9.92867 0.10891,-0.14843 6.84723,2.20797 8.47044,2.96175 1.24817,0.57968 9.37374,2.9395 10.1217,2.9395 0.25084,0 0.45166,0.11833 0.44627,0.26275 -0.006,0.14442 -1.40362,4.87548 -3.1071,10.51337 -1.70347,5.63788 -2.9992,10.30756 -2.8794,10.37696 0.11976,0.0702 1.51797,0.40417 3.10708,0.74396 1.58908,0.33998 2.89038,0.71345 2.89179,0.82999 0,0.11633 0.7608,0.24812 1.6876,0.29204 l 1.68507,0.0803 3.37687,-16.32234 c 1.85728,-8.97713 3.45321,-16.39857 3.54654,-16.49183 0.0932,-0.0943 1.1632,0 2.37756,0.21121 11.31294,1.95124 25.70513,2.46312 36.43553,1.29555 3.41579,-0.37148 6.32064,-0.56544 6.45518,-0.43086 0.13459,0.13439 0.94997,7.92489 1.81201,17.31221 0.86206,9.38711 1.58787,17.09958 1.61295,17.13909 0.0507,0.0803 7.68356,-0.96118 7.77156,-1.05986 0.0305,-0.0341 -0.63728,-4.7114 -1.48416,-10.39362 -0.84693,-5.6824 -1.47454,-10.50634 -1.39478,-10.72016 0.0798,-0.21362 0.98587,-0.49402 2.01354,-0.6226 2.388,-0.29925 9.05974,-1.58377 9.74824,-1.87681 0.28893,-0.12235 0.68291,-0.23689 0.87552,-0.25293 0.19256,-0.02 0.50902,-0.12838 0.7031,-0.25093 0.19416,-0.12235 0.90326,-0.32453 1.57597,-0.4505 l 1.22309,-0.22886 2.59925,10.26585 c 1.42957,5.64611 2.61928,10.29954 2.64377,10.34107 0.0614,0.10427 7.89288,-2.23266 8.02869,-2.39572 0.0601,-0.0723 -1.12436,-4.22882 -2.63224,-9.23689 -3.54701,-11.78062 -3.38791,-10.94721 -2.1742,-11.38728 0.54475,-0.19657 1.30569,-0.51127 1.69092,-0.69681 0.38526,-0.18654 2.46933,-0.96438 4.63131,-1.7302 2.16201,-0.76601 4.44715,-1.66802 5.07811,-2.00439 0.63099,-0.33657 1.22602,-0.63183 1.32234,-0.65629 0.0963,-0.024 0.88427,-0.36746 1.75106,-0.76221 0.86678,-0.39494 1.68418,-0.61798 1.81639,-0.49562 0.13218,0.12235 2.21869,4.38365 4.63652,9.46974 2.41781,5.08629 4.48515,9.33677 4.59403,9.44568 0.10892,0.10832 0.30763,0.0441 0.44162,-0.14241 0.13399,-0.18654 1.26798,-0.84905 2.51999,-1.47124 4.74367,-2.35681 11.65802,-6.02922 12.20918,-6.48453 0.3155,-0.26076 1.16463,-0.77785 1.88696,-1.14912 0.72231,-0.37128 1.31329,-0.80613 1.31329,-0.96639 0,-0.16047 0.19696,-0.1705 0.43777,-0.0221 0.58027,0.35764 0.54118,0.29866 -10.23022,-15.46266 -5.13381,-7.51209 -9.44787,-13.84759 -9.58682,-14.07866 -0.16347,-0.27238 0.70737,-1.06407 2.47149,-2.24709 1.49826,-1.00449 4.36014,-3.07206 6.35975,-4.59426 1.99958,-1.5222 3.75611,-2.63862 3.90342,-2.48097 0.14722,0.15846 4.94558,6.59063 10.6628,14.29549 5.71724,7.70465 10.54121,14.0612 10.71993,14.12579 0.17872,0.0641 1.57937,-0.92026 3.11253,-2.18872 1.53317,-1.26846 2.92625,-2.30626 3.09573,-2.30626 0.16949,0 0.58639,-0.30749 0.92653,-0.68337 0.66766,-0.73774 1.19593,0.0221 -10.33322,-14.84628 l -1.94353,-2.50644 6.67142,-6.68249 6.67145,-6.68251 7.42039,7.35825 7.42037,7.35806 1.33499,-1.41709 c 2.03408,-2.15944 3.26113,-3.66659 3.26113,-4.00577 0,-0.7963 0.98546,-0.0622 3.69882,2.75816 2.96701,3.08331 3.22056,3.43412 2.63699,3.64814 -0.1751,0.0641 -1.29295,1.2833 -2.48419,2.70922 l -2.16598,2.59248 16.74118,16.74396 16.74114,16.74396 -2.78743,2.88754 c -6.4309,6.66224 -17.27236,16.77404 -17.9432,16.73574 -0.13961,0 -6.70097,-8.36075 -14.58103,-18.56141 -7.88001,-10.20087 -14.45607,-18.54677 -14.61335,-18.54677 -0.15725,0 -0.54417,0.39394 -0.8597,0.87553 -0.31551,0.48139 -0.74698,0.87553 -0.9588,0.87553 -0.21186,0 -0.70595,0.31531 -1.09794,0.70082 -0.39203,0.38552 -1.54013,1.33466 -2.55139,2.10929 -1.01124,0.77485 -1.83861,1.57796 -1.83861,1.78496 0,0.207 3.27013,4.77639 7.26693,10.15453 3.99682,5.37793 7.30341,9.89338 7.34796,10.03438 0.0915,0.28944 -5.17931,4.29581 -10.92128,8.30118 l -3.83601,2.67592 -0.612,-0.80753 c -0.33662,-0.44428 -3.5747,-5.17415 -7.19574,-10.51095 -5.85117,-8.62351 -7.45928,-10.64194 -7.45928,-9.36285 0,0.20399 -0.12938,0.29084 -0.28774,0.19256 -0.15825,-0.0983 -0.5507,0.12837 -0.87209,0.50465 -0.32143,0.37529 -0.82232,0.68238 -1.11314,0.68238 -0.29082,0 -0.52874,0.12235 -0.52874,0.26998 0,0.14842 -0.74859,0.6593 -1.66352,1.13507 -0.91493,0.47599 -2.01812,1.16978 -2.4515,1.54226 -0.43338,0.37228 -0.78798,0.55921 -0.78798,0.4152 0,-0.32073 -3.92551,1.8716 -4.28476,2.39291 -0.1416,0.20539 -0.25972,0.24331 -0.26265,0.0843 -0.004,-0.15847 -0.91155,0.21562 -2.01909,0.8324 -1.10756,0.61678 -2.76931,1.49932 -3.69277,1.96086 -0.92349,0.46174 -1.6009,0.96579 -1.50537,1.12044 0.46408,0.75077 19.81957,41.83903 19.81957,42.07311 0,0.14843 -0.51219,0.47738 -1.1382,0.7307 -0.62601,0.25314 -1.21699,0.56263 -1.3133,0.6878 -0.0963,0.12435 -2.30266,1.06045 -4.903,2.0786 -2.60034,1.01833 -4.82848,2.009 -4.95139,2.20135 -0.12295,0.19256 -0.38527,0.25013 -0.58298,0.12838 -0.19777,-0.12236 -0.41229,-0.0862 -0.47692,0.0782 -0.0646,0.16447 -2.16622,0.97762 -4.67024,1.80582 -2.50404,0.82799 -4.65336,1.65979 -4.77629,1.84833 -0.12295,0.18855 -0.39872,0.23428 -0.61289,0.10233 -0.21413,-0.13238 -0.38936,-0.0561 -0.38936,0.16849 0,0.22464 -0.23638,0.31771 -0.52531,0.2068 -0.28894,-0.11032 -0.52532,-0.0822 -0.52532,0.0641 0,0.25654 -3.15651,1.23797 -3.332,1.03599 -0.0474,-0.0542 -3.07348,-10.10619 -6.72499,-22.33731 -6.4826,-21.71452 -6.65905,-22.23643 -7.48419,-22.14937 -0.46477,0.0481 -2.39455,0.51629 -4.28836,1.0384 -3.33027,0.91805 -3.43688,0.97843 -3.24784,1.8369 0.10752,0.48821 2.70577,10.77492 5.77399,22.85922 l 5.57863,21.97126 -1.2801,0.33576 c -0.70403,0.18453 -4.03803,0.90783 -7.40883,1.60705 -3.37082,0.69942 -6.44396,1.41007 -6.82918,1.57936 -0.6123,0.26918 -7.18128,1.39001 -8.14629,1.39001 -0.19697,0 -0.4387,-0.35462 -0.53731,-0.78808 z"
       id="path3047"
       inkscape:connector-curvature="0" />
    <path
       d="m 228.16024,675.75202 50.28664,0 34.89276,81.99801 35.09803,-81.99801 50.18401,0 0,153.22031 -37.35579,0 0,-112.06736 -35.30327,82.61377 -25.04069,0 -35.30327,-82.61377 0,112.06736 -37.45842,0 0,-153.22031"
       style="font-size:240px;font-style:normal;font-weight:bold;line-height:125%;letter-spacing:0px;word-spacing:0px;fill:#000000;fill-opacity:1;stroke:none;font-family:Vemana2000;-inkscape-font-specification:Vemana2000"
       id="path3016-3"
       inkscape:connector-curvature="0" />
  </g>
</svg>
